<?xml version="1.0" encoding="utf-8" standalone="no"?>
<!DOCTYPE svg PUBLIC "-//W3C//DTD SVG 1.1//EN"
  "http://www.w3.org/Graphics/SVG/1.1/DTD/svg11.dtd">
<svg height="432pt" version="1.1" viewBox="0 0 432 432" width="432pt" xmlns="http://www.w3.org/2000/svg" xmlns:xlink="http://www.w3.org/1999/xlink">
 <metadata>
  <rdf:RDF xmlns:cc="http://creativecommons.org/ns#" xmlns:dc="http://purl.org/dc/elements/1.1/" xmlns:rdf="http://www.w3.org/1999/02/22-rdf-syntax-ns#">
   <cc:Work>
    <dc:type rdf:resource="http://purl.org/dc/dcmitype/StillImage"/>
    <dc:date>2021-11-04T00:26:51.734002</dc:date>
    <dc:format>image/svg+xml</dc:format>
    <dc:creator>
     <cc:Agent>
      <dc:title>Matplotlib v3.4.3, https://matplotlib.org/</dc:title>
     </cc:Agent>
    </dc:creator>
   </cc:Work>
  </rdf:RDF>
 </metadata>
 <defs>
  <style type="text/css">*{stroke-linecap:butt;stroke-linejoin:round;}</style>
 </defs>
 <g id="figure_1">
  <g id="patch_1">
   <path d="M 0 432 
L 432 432 
L 432 0 
L 0 0 
z
" style="fill:#ffffff;"/>
  </g>
  <g id="axes_1">
   <g id="patch_2">
    <path d="M 54 384.48 
L 388.8 384.48 
L 388.8 51.84 
L 54 51.84 
z
" style="fill:#ffffff;"/>
   </g>
   <g id="PathCollection_1">
    <defs>
     <path d="M 0 4.472136 
C 1.186024 4.472136 2.323632 4.000923 3.162278 3.162278 
C 4.000923 2.323632 4.472136 1.186024 4.472136 0 
C 4.472136 -1.186024 4.000923 -2.323632 3.162278 -3.162278 
C 2.323632 -4.000923 1.186024 -4.472136 0 -4.472136 
C -1.186024 -4.472136 -2.323632 -4.000923 -3.162278 -3.162278 
C -4.000923 -2.323632 -4.472136 -1.186024 -4.472136 0 
C -4.472136 1.186024 -4.000923 2.323632 -3.162278 3.162278 
C -2.323632 4.000923 -1.186024 4.472136 0 4.472136 
z
" id="m64d40d476f" style="stroke:#6e1cff;"/>
    </defs>
    <g clip-path="url(#p25b2f2d918)">
     <use style="fill:#6e1cff;stroke:#6e1cff;" x="69.218182" xlink:href="#m64d40d476f" y="66.96"/>
    </g>
   </g>
   <g id="PathCollection_2">
    <defs>
     <path d="M 0 4.472136 
C 1.186024 4.472136 2.323632 4.000923 3.162278 3.162278 
C 4.000923 2.323632 4.472136 1.186024 4.472136 0 
C 4.472136 -1.186024 4.000923 -2.323632 3.162278 -3.162278 
C 2.323632 -4.000923 1.186024 -4.472136 0 -4.472136 
C -1.186024 -4.472136 -2.323632 -4.000923 -3.162278 -3.162278 
C -4.000923 -2.323632 -4.472136 -1.186024 -4.472136 0 
C -4.472136 1.186024 -4.000923 2.323632 -3.162278 3.162278 
C -2.323632 4.000923 -1.186024 4.472136 0 4.472136 
z
" id="m362e6b7325" style="stroke:#5c38fd;"/>
    </defs>
    <g clip-path="url(#p25b2f2d918)">
     <use style="fill:#5c38fd;stroke:#5c38fd;" x="69.218207" xlink:href="#m362e6b7325" y="67.236865"/>
    </g>
   </g>
   <g id="PathCollection_3">
    <defs>
     <path d="M 0 4.472136 
C 1.186024 4.472136 2.323632 4.000923 3.162278 3.162278 
C 4.000923 2.323632 4.472136 1.186024 4.472136 0 
C 4.472136 -1.186024 4.000923 -2.323632 3.162278 -3.162278 
C 2.323632 -4.000923 1.186024 -4.472136 0 -4.472136 
C -1.186024 -4.472136 -2.323632 -4.000923 -3.162278 -3.162278 
C -4.000923 -2.323632 -4.472136 -1.186024 -4.472136 0 
C -4.472136 1.186024 -4.000923 2.323632 -3.162278 3.162278 
C -2.323632 4.000923 -1.186024 4.472136 0 4.472136 
z
" id="m5d16da42ef" style="stroke:#4a53fb;"/>
    </defs>
    <g clip-path="url(#p25b2f2d918)">
     <use style="fill:#4a53fb;stroke:#4a53fb;" x="69.220745" xlink:href="#m5d16da42ef" y="69.983013"/>
    </g>
   </g>
   <g id="PathCollection_4">
    <defs>
     <path d="M 0 4.472136 
C 1.186024 4.472136 2.323632 4.000923 3.162278 3.162278 
C 4.000923 2.323632 4.472136 1.186024 4.472136 0 
C 4.472136 -1.186024 4.000923 -2.323632 3.162278 -3.162278 
C 2.323632 -4.000923 1.186024 -4.472136 0 -4.472136 
C -1.186024 -4.472136 -2.323632 -4.000923 -3.162278 -3.162278 
C -4.000923 -2.323632 -4.472136 -1.186024 -4.472136 0 
C -4.472136 1.186024 -4.000923 2.323632 -3.162278 3.162278 
C -2.323632 4.000923 -1.186024 4.472136 0 4.472136 
z
" id="m6cbf31c075" style="stroke:#386df9;"/>
    </defs>
    <g clip-path="url(#p25b2f2d918)">
     <use style="fill:#386df9;stroke:#386df9;" x="69.450717" xlink:href="#m6cbf31c075" y="95.273241"/>
    </g>
   </g>
   <g id="PathCollection_5">
    <defs>
     <path d="M 0 4.472136 
C 1.186024 4.472136 2.323632 4.000923 3.162278 3.162278 
C 4.000923 2.323632 4.472136 1.186024 4.472136 0 
C 4.472136 -1.186024 4.000923 -2.323632 3.162278 -3.162278 
C 2.323632 -4.000923 1.186024 -4.472136 0 -4.472136 
C -1.186024 -4.472136 -2.323632 -4.000923 -3.162278 -3.162278 
C -4.000923 -2.323632 -4.472136 -1.186024 -4.472136 0 
C -4.472136 1.186024 -4.000923 2.323632 -3.162278 3.162278 
C -2.323632 4.000923 -1.186024 4.472136 0 4.472136 
z
" id="mc1be991e1b" style="stroke:#2686f5;"/>
    </defs>
    <g clip-path="url(#p25b2f2d918)">
     <use style="fill:#2686f5;stroke:#2686f5;" x="78.694428" xlink:href="#mc1be991e1b" y="218.894387"/>
    </g>
   </g>
   <g id="PathCollection_6">
    <defs>
     <path d="M 0 4.472136 
C 1.186024 4.472136 2.323632 4.000923 3.162278 3.162278 
C 4.000923 2.323632 4.472136 1.186024 4.472136 0 
C 4.472136 -1.186024 4.000923 -2.323632 3.162278 -3.162278 
C 2.323632 -4.000923 1.186024 -4.472136 0 -4.472136 
C -1.186024 -4.472136 -2.323632 -4.000923 -3.162278 -3.162278 
C -4.000923 -2.323632 -4.472136 -1.186024 -4.472136 0 
C -4.472136 1.186024 -4.000923 2.323632 -3.162278 3.162278 
C -2.323632 4.000923 -1.186024 4.472136 0 4.472136 
z
" id="m5421fb2c3e" style="stroke:#149df1;"/>
    </defs>
    <g clip-path="url(#p25b2f2d918)">
     <use style="fill:#149df1;stroke:#149df1;" x="86.793631" xlink:href="#m5421fb2c3e" y="257.244987"/>
    </g>
   </g>
   <g id="PathCollection_7">
    <defs>
     <path d="M 0 4.472136 
C 1.186024 4.472136 2.323632 4.000923 3.162278 3.162278 
C 4.000923 2.323632 4.472136 1.186024 4.472136 0 
C 4.472136 -1.186024 4.000923 -2.323632 3.162278 -3.162278 
C 2.323632 -4.000923 1.186024 -4.472136 0 -4.472136 
C -1.186024 -4.472136 -2.323632 -4.000923 -3.162278 -3.162278 
C -4.000923 -2.323632 -4.472136 -1.186024 -4.472136 0 
C -4.472136 1.186024 -4.000923 2.323632 -3.162278 3.162278 
C -2.323632 4.000923 -1.186024 4.472136 0 4.472136 
z
" id="mef333f35eb" style="stroke:#00b5eb;"/>
    </defs>
    <g clip-path="url(#p25b2f2d918)">
     <use style="fill:#00b5eb;stroke:#00b5eb;" x="95.371889" xlink:href="#mef333f35eb" y="282.815573"/>
    </g>
   </g>
   <g id="PathCollection_8">
    <defs>
     <path d="M 0 4.472136 
C 1.186024 4.472136 2.323632 4.000923 3.162278 3.162278 
C 4.000923 2.323632 4.472136 1.186024 4.472136 0 
C 4.472136 -1.186024 4.000923 -2.323632 3.162278 -3.162278 
C 2.323632 -4.000923 1.186024 -4.472136 0 -4.472136 
C -1.186024 -4.472136 -2.323632 -4.000923 -3.162278 -3.162278 
C -4.000923 -2.323632 -4.472136 -1.186024 -4.472136 0 
C -4.472136 1.186024 -4.000923 2.323632 -3.162278 3.162278 
C -2.323632 4.000923 -1.186024 4.472136 0 4.472136 
z
" id="m0b65157bdf" style="stroke:#12c8e6;"/>
    </defs>
    <g clip-path="url(#p25b2f2d918)">
     <use style="fill:#12c8e6;stroke:#12c8e6;" x="102.195098" xlink:href="#m0b65157bdf" y="297.294967"/>
    </g>
   </g>
   <g id="PathCollection_9">
    <defs>
     <path d="M 0 4.472136 
C 1.186024 4.472136 2.323632 4.000923 3.162278 3.162278 
C 4.000923 2.323632 4.472136 1.186024 4.472136 0 
C 4.472136 -1.186024 4.000923 -2.323632 3.162278 -3.162278 
C 2.323632 -4.000923 1.186024 -4.472136 0 -4.472136 
C -1.186024 -4.472136 -2.323632 -4.000923 -3.162278 -3.162278 
C -4.000923 -2.323632 -4.472136 -1.186024 -4.472136 0 
C -4.472136 1.186024 -4.000923 2.323632 -3.162278 3.162278 
C -2.323632 4.000923 -1.186024 4.472136 0 4.472136 
z
" id="m1a62ce9744" style="stroke:#24d8df;"/>
    </defs>
    <g clip-path="url(#p25b2f2d918)">
     <use style="fill:#24d8df;stroke:#24d8df;" x="114.373032" xlink:href="#m1a62ce9744" y="315.753328"/>
    </g>
   </g>
   <g id="PathCollection_10">
    <defs>
     <path d="M 0 4.472136 
C 1.186024 4.472136 2.323632 4.000923 3.162278 3.162278 
C 4.000923 2.323632 4.472136 1.186024 4.472136 0 
C 4.472136 -1.186024 4.000923 -2.323632 3.162278 -3.162278 
C 2.323632 -4.000923 1.186024 -4.472136 0 -4.472136 
C -1.186024 -4.472136 -2.323632 -4.000923 -3.162278 -3.162278 
C -4.000923 -2.323632 -4.472136 -1.186024 -4.472136 0 
C -4.472136 1.186024 -4.000923 2.323632 -3.162278 3.162278 
C -2.323632 4.000923 -1.186024 4.472136 0 4.472136 
z
" id="m6b5cc279a6" style="stroke:#37e6d8;"/>
    </defs>
    <g clip-path="url(#p25b2f2d918)">
     <use style="fill:#37e6d8;stroke:#37e6d8;" x="116.190501" xlink:href="#m6b5cc279a6" y="317.868477"/>
    </g>
   </g>
   <g id="PathCollection_11">
    <defs>
     <path d="M 0 4.472136 
C 1.186024 4.472136 2.323632 4.000923 3.162278 3.162278 
C 4.000923 2.323632 4.472136 1.186024 4.472136 0 
C 4.472136 -1.186024 4.000923 -2.323632 3.162278 -3.162278 
C 2.323632 -4.000923 1.186024 -4.472136 0 -4.472136 
C -1.186024 -4.472136 -2.323632 -4.000923 -3.162278 -3.162278 
C -4.000923 -2.323632 -4.472136 -1.186024 -4.472136 0 
C -4.472136 1.186024 -4.000923 2.323632 -3.162278 3.162278 
C -2.323632 4.000923 -1.186024 4.472136 0 4.472136 
z
" id="m61f09059cb" style="stroke:#48f1d0;"/>
    </defs>
    <g clip-path="url(#p25b2f2d918)">
     <use style="fill:#48f1d0;stroke:#48f1d0;" x="118.133031" xlink:href="#m61f09059cb" y="319.993215"/>
    </g>
   </g>
   <g id="PathCollection_12">
    <defs>
     <path d="M 0 4.472136 
C 1.186024 4.472136 2.323632 4.000923 3.162278 3.162278 
C 4.000923 2.323632 4.472136 1.186024 4.472136 0 
C 4.472136 -1.186024 4.000923 -2.323632 3.162278 -3.162278 
C 2.323632 -4.000923 1.186024 -4.472136 0 -4.472136 
C -1.186024 -4.472136 -2.323632 -4.000923 -3.162278 -3.162278 
C -4.000923 -2.323632 -4.472136 -1.186024 -4.472136 0 
C -4.472136 1.186024 -4.000923 2.323632 -3.162278 3.162278 
C -2.323632 4.000923 -1.186024 4.472136 0 4.472136 
z
" id="me1531106b3" style="stroke:#5af8c8;"/>
    </defs>
    <g clip-path="url(#p25b2f2d918)">
     <use style="fill:#5af8c8;stroke:#5af8c8;" x="119.155639" xlink:href="#me1531106b3" y="321.058876"/>
    </g>
   </g>
   <g id="PathCollection_13">
    <defs>
     <path d="M 0 4.472136 
C 1.186024 4.472136 2.323632 4.000923 3.162278 3.162278 
C 4.000923 2.323632 4.472136 1.186024 4.472136 0 
C 4.472136 -1.186024 4.000923 -2.323632 3.162278 -3.162278 
C 2.323632 -4.000923 1.186024 -4.472136 0 -4.472136 
C -1.186024 -4.472136 -2.323632 -4.000923 -3.162278 -3.162278 
C -4.000923 -2.323632 -4.472136 -1.186024 -4.472136 0 
C -4.472136 1.186024 -4.000923 2.323632 -3.162278 3.162278 
C -2.323632 4.000923 -1.186024 4.472136 0 4.472136 
z
" id="m7e74556e72" style="stroke:#6dfdbf;"/>
    </defs>
    <g clip-path="url(#p25b2f2d918)">
     <use style="fill:#6dfdbf;stroke:#6dfdbf;" x="119.680658" xlink:href="#m7e74556e72" y="321.592485"/>
    </g>
   </g>
   <g id="PathCollection_14">
    <defs>
     <path d="M 0 4.472136 
C 1.186024 4.472136 2.323632 4.000923 3.162278 3.162278 
C 4.000923 2.323632 4.472136 1.186024 4.472136 0 
C 4.472136 -1.186024 4.000923 -2.323632 3.162278 -3.162278 
C 2.323632 -4.000923 1.186024 -4.472136 0 -4.472136 
C -1.186024 -4.472136 -2.323632 -4.000923 -3.162278 -3.162278 
C -4.000923 -2.323632 -4.472136 -1.186024 -4.472136 0 
C -4.472136 1.186024 -4.000923 2.323632 -3.162278 3.162278 
C -2.323632 4.000923 -1.186024 4.472136 0 4.472136 
z
" id="mcf737abc2f" style="stroke:#80ffb4;"/>
    </defs>
    <g clip-path="url(#p25b2f2d918)">
     <use style="fill:#80ffb4;stroke:#80ffb4;" x="119.946715" xlink:href="#mcf737abc2f" y="321.859479"/>
    </g>
   </g>
   <g id="PathCollection_15">
    <defs>
     <path d="M 0 4.472136 
C 1.186024 4.472136 2.323632 4.000923 3.162278 3.162278 
C 4.000923 2.323632 4.472136 1.186024 4.472136 0 
C 4.472136 -1.186024 4.000923 -2.323632 3.162278 -3.162278 
C 2.323632 -4.000923 1.186024 -4.472136 0 -4.472136 
C -1.186024 -4.472136 -2.323632 -4.000923 -3.162278 -3.162278 
C -4.000923 -2.323632 -4.472136 -1.186024 -4.472136 0 
C -4.472136 1.186024 -4.000923 2.323632 -3.162278 3.162278 
C -2.323632 4.000923 -1.186024 4.472136 0 4.472136 
z
" id="m3fb05a95f2" style="stroke:#92fda9;"/>
    </defs>
    <g clip-path="url(#p25b2f2d918)">
     <use style="fill:#92fda9;stroke:#92fda9;" x="120.080646" xlink:href="#m3fb05a95f2" y="321.993022"/>
    </g>
   </g>
   <g id="PathCollection_16">
    <defs>
     <path d="M 0 4.472136 
C 1.186024 4.472136 2.323632 4.000923 3.162278 3.162278 
C 4.000923 2.323632 4.472136 1.186024 4.472136 0 
C 4.472136 -1.186024 4.000923 -2.323632 3.162278 -3.162278 
C 2.323632 -4.000923 1.186024 -4.472136 0 -4.472136 
C -1.186024 -4.472136 -2.323632 -4.000923 -3.162278 -3.162278 
C -4.000923 -2.323632 -4.472136 -1.186024 -4.472136 0 
C -4.472136 1.186024 -4.000923 2.323632 -3.162278 3.162278 
C -2.323632 4.000923 -1.186024 4.472136 0 4.472136 
z
" id="m5ea5983932" style="stroke:#a4f89f;"/>
    </defs>
    <g clip-path="url(#p25b2f2d918)">
     <use style="fill:#a4f89f;stroke:#a4f89f;" x="120.215185" xlink:href="#m5ea5983932" y="322.126597"/>
    </g>
   </g>
   <g id="PathCollection_17">
    <defs>
     <path d="M 0 4.472136 
C 1.186024 4.472136 2.323632 4.000923 3.162278 3.162278 
C 4.000923 2.323632 4.472136 1.186024 4.472136 0 
C 4.472136 -1.186024 4.000923 -2.323632 3.162278 -3.162278 
C 2.323632 -4.000923 1.186024 -4.472136 0 -4.472136 
C -1.186024 -4.472136 -2.323632 -4.000923 -3.162278 -3.162278 
C -4.000923 -2.323632 -4.472136 -1.186024 -4.472136 0 
C -4.472136 1.186024 -4.000923 2.323632 -3.162278 3.162278 
C -2.323632 4.000923 -1.186024 4.472136 0 4.472136 
z
" id="m9973ddc1e8" style="stroke:#b6f193;"/>
    </defs>
    <g clip-path="url(#p25b2f2d918)">
     <use style="fill:#b6f193;stroke:#b6f193;" x="120.350337" xlink:href="#m9973ddc1e8" y="322.260203"/>
    </g>
   </g>
   <g id="PathCollection_18">
    <defs>
     <path d="M 0 4.472136 
C 1.186024 4.472136 2.323632 4.000923 3.162278 3.162278 
C 4.000923 2.323632 4.472136 1.186024 4.472136 0 
C 4.472136 -1.186024 4.000923 -2.323632 3.162278 -3.162278 
C 2.323632 -4.000923 1.186024 -4.472136 0 -4.472136 
C -1.186024 -4.472136 -2.323632 -4.000923 -3.162278 -3.162278 
C -4.000923 -2.323632 -4.472136 -1.186024 -4.472136 0 
C -4.472136 1.186024 -4.000923 2.323632 -3.162278 3.162278 
C -2.323632 4.000923 -1.186024 4.472136 0 4.472136 
z
" id="m2c90d79bbf" style="stroke:#c8e688;"/>
    </defs>
    <g clip-path="url(#p25b2f2d918)">
     <use style="fill:#c8e688;stroke:#c8e688;" x="120.486105" xlink:href="#m2c90d79bbf" y="322.393839"/>
    </g>
   </g>
   <g id="PathCollection_19">
    <defs>
     <path d="M 0 4.472136 
C 1.186024 4.472136 2.323632 4.000923 3.162278 3.162278 
C 4.000923 2.323632 4.472136 1.186024 4.472136 0 
C 4.472136 -1.186024 4.000923 -2.323632 3.162278 -3.162278 
C 2.323632 -4.000923 1.186024 -4.472136 0 -4.472136 
C -1.186024 -4.472136 -2.323632 -4.000923 -3.162278 -3.162278 
C -4.000923 -2.323632 -4.472136 -1.186024 -4.472136 0 
C -4.472136 1.186024 -4.000923 2.323632 -3.162278 3.162278 
C -2.323632 4.000923 -1.186024 4.472136 0 4.472136 
z
" id="m3dd0e4cf98" style="stroke:#dbd87b;"/>
    </defs>
    <g clip-path="url(#p25b2f2d918)">
     <use style="fill:#dbd87b;stroke:#dbd87b;" x="120.759513" xlink:href="#m3dd0e4cf98" y="322.661203"/>
    </g>
   </g>
   <g id="PathCollection_20">
    <defs>
     <path d="M 0 4.472136 
C 1.186024 4.472136 2.323632 4.000923 3.162278 3.162278 
C 4.000923 2.323632 4.472136 1.186024 4.472136 0 
C 4.472136 -1.186024 4.000923 -2.323632 3.162278 -3.162278 
C 2.323632 -4.000923 1.186024 -4.472136 0 -4.472136 
C -1.186024 -4.472136 -2.323632 -4.000923 -3.162278 -3.162278 
C -4.000923 -2.323632 -4.472136 -1.186024 -4.472136 0 
C -4.472136 1.186024 -4.000923 2.323632 -3.162278 3.162278 
C -2.323632 4.000923 -1.186024 4.472136 0 4.472136 
z
" id="m171cc7c34c" style="stroke:#ecc86f;"/>
    </defs>
    <g clip-path="url(#p25b2f2d918)">
     <use style="fill:#ecc86f;stroke:#ecc86f;" x="121.313945" xlink:href="#m171cc7c34c" y="323.196292"/>
    </g>
   </g>
   <g id="PathCollection_21">
    <defs>
     <path d="M 0 4.472136 
C 1.186024 4.472136 2.323632 4.000923 3.162278 3.162278 
C 4.000923 2.323632 4.472136 1.186024 4.472136 0 
C 4.472136 -1.186024 4.000923 -2.323632 3.162278 -3.162278 
C 2.323632 -4.000923 1.186024 -4.472136 0 -4.472136 
C -1.186024 -4.472136 -2.323632 -4.000923 -3.162278 -3.162278 
C -4.000923 -2.323632 -4.472136 -1.186024 -4.472136 0 
C -4.472136 1.186024 -4.000923 2.323632 -3.162278 3.162278 
C -2.323632 4.000923 -1.186024 4.472136 0 4.472136 
z
" id="m97504d7a69" style="stroke:#ffb360;"/>
    </defs>
    <g clip-path="url(#p25b2f2d918)">
     <use style="fill:#ffb360;stroke:#ffb360;" x="122.454424" xlink:href="#m97504d7a69" y="324.267891"/>
    </g>
   </g>
   <g id="PathCollection_22">
    <defs>
     <path d="M 0 4.472136 
C 1.186024 4.472136 2.323632 4.000923 3.162278 3.162278 
C 4.000923 2.323632 4.472136 1.186024 4.472136 0 
C 4.472136 -1.186024 4.000923 -2.323632 3.162278 -3.162278 
C 2.323632 -4.000923 1.186024 -4.472136 0 -4.472136 
C -1.186024 -4.472136 -2.323632 -4.000923 -3.162278 -3.162278 
C -4.000923 -2.323632 -4.472136 -1.186024 -4.472136 0 
C -4.472136 1.186024 -4.000923 2.323632 -3.162278 3.162278 
C -2.323632 4.000923 -1.186024 4.472136 0 4.472136 
z
" id="m9e5e4fcf2d" style="stroke:#ff9d53;"/>
    </defs>
    <g clip-path="url(#p25b2f2d918)">
     <use style="fill:#ff9d53;stroke:#ff9d53;" x="122.922906" xlink:href="#m9e5e4fcf2d" y="324.697051"/>
    </g>
   </g>
   <g id="PathCollection_23">
    <defs>
     <path d="M 0 4.472136 
C 1.186024 4.472136 2.323632 4.000923 3.162278 3.162278 
C 4.000923 2.323632 4.472136 1.186024 4.472136 0 
C 4.472136 -1.186024 4.000923 -2.323632 3.162278 -3.162278 
C 2.323632 -4.000923 1.186024 -4.472136 0 -4.472136 
C -1.186024 -4.472136 -2.323632 -4.000923 -3.162278 -3.162278 
C -4.000923 -2.323632 -4.472136 -1.186024 -4.472136 0 
C -4.472136 1.186024 -4.000923 2.323632 -3.162278 3.162278 
C -2.323632 4.000923 -1.186024 4.472136 0 4.472136 
z
" id="m2d95f3ab1b" style="stroke:#ff8646;"/>
    </defs>
    <g clip-path="url(#p25b2f2d918)">
     <use style="fill:#ff8646;stroke:#ff8646;" x="123.398689" xlink:href="#m2d95f3ab1b" y="325.126502"/>
    </g>
   </g>
   <g id="PathCollection_24">
    <defs>
     <path d="M 0 4.472136 
C 1.186024 4.472136 2.323632 4.000923 3.162278 3.162278 
C 4.000923 2.323632 4.472136 1.186024 4.472136 0 
C 4.472136 -1.186024 4.000923 -2.323632 3.162278 -3.162278 
C 2.323632 -4.000923 1.186024 -4.472136 0 -4.472136 
C -1.186024 -4.472136 -2.323632 -4.000923 -3.162278 -3.162278 
C -4.000923 -2.323632 -4.472136 -1.186024 -4.472136 0 
C -4.472136 1.186024 -4.000923 2.323632 -3.162278 3.162278 
C -2.323632 4.000923 -1.186024 4.472136 0 4.472136 
z
" id="me1a0aa7082" style="stroke:#ff6d38;"/>
    </defs>
    <g clip-path="url(#p25b2f2d918)">
     <use style="fill:#ff6d38;stroke:#ff6d38;" x="124.37297" xlink:href="#me1a0aa7082" y="325.986281"/>
    </g>
   </g>
   <g id="PathCollection_25">
    <defs>
     <path d="M 0 4.472136 
C 1.186024 4.472136 2.323632 4.000923 3.162278 3.162278 
C 4.000923 2.323632 4.472136 1.186024 4.472136 0 
C 4.472136 -1.186024 4.000923 -2.323632 3.162278 -3.162278 
C 2.323632 -4.000923 1.186024 -4.472136 0 -4.472136 
C -1.186024 -4.472136 -2.323632 -4.000923 -3.162278 -3.162278 
C -4.000923 -2.323632 -4.472136 -1.186024 -4.472136 0 
C -4.472136 1.186024 -4.000923 2.323632 -3.162278 3.162278 
C -2.323632 4.000923 -1.186024 4.472136 0 4.472136 
z
" id="m93e5929e4d" style="stroke:#ff532a;"/>
    </defs>
    <g clip-path="url(#p25b2f2d918)">
     <use style="fill:#ff532a;stroke:#ff532a;" x="126.418572" xlink:href="#m93e5929e4d" y="327.709416"/>
    </g>
   </g>
   <g id="PathCollection_26">
    <defs>
     <path d="M 0 4.472136 
C 1.186024 4.472136 2.323632 4.000923 3.162278 3.162278 
C 4.000923 2.323632 4.472136 1.186024 4.472136 0 
C 4.472136 -1.186024 4.000923 -2.323632 3.162278 -3.162278 
C 2.323632 -4.000923 1.186024 -4.472136 0 -4.472136 
C -1.186024 -4.472136 -2.323632 -4.000923 -3.162278 -3.162278 
C -4.000923 -2.323632 -4.472136 -1.186024 -4.472136 0 
C -4.472136 1.186024 -4.000923 2.323632 -3.162278 3.162278 
C -2.323632 4.000923 -1.186024 4.472136 0 4.472136 
z
" id="mc73775f3cd" style="stroke:#ff381c;"/>
    </defs>
    <g clip-path="url(#p25b2f2d918)">
     <use style="fill:#ff381c;stroke:#ff381c;" x="164.26871" xlink:href="#mc73775f3cd" y="348.228927"/>
    </g>
   </g>
   <g id="PathCollection_27">
    <defs>
     <path d="M 0 4.472136 
C 1.186024 4.472136 2.323632 4.000923 3.162278 3.162278 
C 4.000923 2.323632 4.472136 1.186024 4.472136 0 
C 4.472136 -1.186024 4.000923 -2.323632 3.162278 -3.162278 
C 2.323632 -4.000923 1.186024 -4.472136 0 -4.472136 
C -1.186024 -4.472136 -2.323632 -4.000923 -3.162278 -3.162278 
C -4.000923 -2.323632 -4.472136 -1.186024 -4.472136 0 
C -4.472136 1.186024 -4.000923 2.323632 -3.162278 3.162278 
C -2.323632 4.000923 -1.186024 4.472136 0 4.472136 
z
" id="m75e246230f" style="stroke:#ff1c0e;"/>
    </defs>
    <g clip-path="url(#p25b2f2d918)">
     <use style="fill:#ff1c0e;stroke:#ff1c0e;" x="299.769696" xlink:href="#m75e246230f" y="368.417862"/>
    </g>
   </g>
   <g id="PathCollection_28">
    <defs>
     <path d="M 0 4.472136 
C 1.186024 4.472136 2.323632 4.000923 3.162278 3.162278 
C 4.000923 2.323632 4.472136 1.186024 4.472136 0 
C 4.472136 -1.186024 4.000923 -2.323632 3.162278 -3.162278 
C 2.323632 -4.000923 1.186024 -4.472136 0 -4.472136 
C -1.186024 -4.472136 -2.323632 -4.000923 -3.162278 -3.162278 
C -4.000923 -2.323632 -4.472136 -1.186024 -4.472136 0 
C -4.472136 1.186024 -4.000923 2.323632 -3.162278 3.162278 
C -2.323632 4.000923 -1.186024 4.472136 0 4.472136 
z
" id="mbd07a0d43d" style="stroke:#ff0000;"/>
    </defs>
    <g clip-path="url(#p25b2f2d918)">
     <use style="fill:#ff0000;stroke:#ff0000;" x="373.581818" xlink:href="#mbd07a0d43d" y="369.36"/>
    </g>
   </g>
   <g id="PathCollection_29">
    <path clip-path="url(#p25b2f2d918)" d="M 120.080646 326.993022 
C 121.406662 326.993022 122.678545 326.466191 123.61618 325.528556 
C 124.553815 324.590922 125.080646 323.319038 125.080646 321.993022 
C 125.080646 320.667007 124.553815 319.395123 123.61618 318.457488 
C 122.678545 317.519854 121.406662 316.993022 120.080646 316.993022 
C 118.754631 316.993022 117.482747 317.519854 116.545112 318.457488 
C 115.607478 319.395123 115.080646 320.667007 115.080646 321.993022 
C 115.080646 323.319038 115.607478 324.590922 116.545112 325.528556 
C 117.482747 326.466191 118.754631 326.993022 120.080646 326.993022 
z
" style="fill:none;stroke:#000000;stroke-width:3;"/>
   </g>
   <g id="matplotlib.axis_1">
    <g id="xtick_1">
     <g id="line2d_1">
      <defs>
       <path d="M 0 0 
L 0 3.5 
" id="mb940323b04" style="stroke:#000000;stroke-width:0.8;"/>
      </defs>
      <g>
       <use style="stroke:#000000;stroke-width:0.8;" x="69.218182" xlink:href="#mb940323b04" y="384.48"/>
      </g>
     </g>
     <g id="text_1">
      <!-- 0.00 -->
      <g transform="translate(58.085369 399.078438)scale(0.1 -0.1)">
       <defs>
        <path d="M 2034 4250 
Q 1547 4250 1301 3770 
Q 1056 3291 1056 2328 
Q 1056 1369 1301 889 
Q 1547 409 2034 409 
Q 2525 409 2770 889 
Q 3016 1369 3016 2328 
Q 3016 3291 2770 3770 
Q 2525 4250 2034 4250 
z
M 2034 4750 
Q 2819 4750 3233 4129 
Q 3647 3509 3647 2328 
Q 3647 1150 3233 529 
Q 2819 -91 2034 -91 
Q 1250 -91 836 529 
Q 422 1150 422 2328 
Q 422 3509 836 4129 
Q 1250 4750 2034 4750 
z
" id="DejaVuSans-30" transform="scale(0.015625)"/>
        <path d="M 684 794 
L 1344 794 
L 1344 0 
L 684 0 
L 684 794 
z
" id="DejaVuSans-2e" transform="scale(0.015625)"/>
       </defs>
       <use xlink:href="#DejaVuSans-30"/>
       <use x="63.623047" xlink:href="#DejaVuSans-2e"/>
       <use x="95.410156" xlink:href="#DejaVuSans-30"/>
       <use x="159.033203" xlink:href="#DejaVuSans-30"/>
      </g>
     </g>
    </g>
    <g id="xtick_2">
     <g id="line2d_2">
      <g>
       <use style="stroke:#000000;stroke-width:0.8;" x="114.632657" xlink:href="#mb940323b04" y="384.48"/>
      </g>
     </g>
     <g id="text_2">
      <!-- 0.25 -->
      <g transform="translate(103.499844 399.078438)scale(0.1 -0.1)">
       <defs>
        <path d="M 1228 531 
L 3431 531 
L 3431 0 
L 469 0 
L 469 531 
Q 828 903 1448 1529 
Q 2069 2156 2228 2338 
Q 2531 2678 2651 2914 
Q 2772 3150 2772 3378 
Q 2772 3750 2511 3984 
Q 2250 4219 1831 4219 
Q 1534 4219 1204 4116 
Q 875 4013 500 3803 
L 500 4441 
Q 881 4594 1212 4672 
Q 1544 4750 1819 4750 
Q 2544 4750 2975 4387 
Q 3406 4025 3406 3419 
Q 3406 3131 3298 2873 
Q 3191 2616 2906 2266 
Q 2828 2175 2409 1742 
Q 1991 1309 1228 531 
z
" id="DejaVuSans-32" transform="scale(0.015625)"/>
        <path d="M 691 4666 
L 3169 4666 
L 3169 4134 
L 1269 4134 
L 1269 2991 
Q 1406 3038 1543 3061 
Q 1681 3084 1819 3084 
Q 2600 3084 3056 2656 
Q 3513 2228 3513 1497 
Q 3513 744 3044 326 
Q 2575 -91 1722 -91 
Q 1428 -91 1123 -41 
Q 819 9 494 109 
L 494 744 
Q 775 591 1075 516 
Q 1375 441 1709 441 
Q 2250 441 2565 725 
Q 2881 1009 2881 1497 
Q 2881 1984 2565 2268 
Q 2250 2553 1709 2553 
Q 1456 2553 1204 2497 
Q 953 2441 691 2322 
L 691 4666 
z
" id="DejaVuSans-35" transform="scale(0.015625)"/>
       </defs>
       <use xlink:href="#DejaVuSans-30"/>
       <use x="63.623047" xlink:href="#DejaVuSans-2e"/>
       <use x="95.410156" xlink:href="#DejaVuSans-32"/>
       <use x="159.033203" xlink:href="#DejaVuSans-35"/>
      </g>
     </g>
    </g>
    <g id="xtick_3">
     <g id="line2d_3">
      <g>
       <use style="stroke:#000000;stroke-width:0.8;" x="160.047132" xlink:href="#mb940323b04" y="384.48"/>
      </g>
     </g>
     <g id="text_3">
      <!-- 0.50 -->
      <g transform="translate(148.91432 399.078438)scale(0.1 -0.1)">
       <use xlink:href="#DejaVuSans-30"/>
       <use x="63.623047" xlink:href="#DejaVuSans-2e"/>
       <use x="95.410156" xlink:href="#DejaVuSans-35"/>
       <use x="159.033203" xlink:href="#DejaVuSans-30"/>
      </g>
     </g>
    </g>
    <g id="xtick_4">
     <g id="line2d_4">
      <g>
       <use style="stroke:#000000;stroke-width:0.8;" x="205.461608" xlink:href="#mb940323b04" y="384.48"/>
      </g>
     </g>
     <g id="text_4">
      <!-- 0.75 -->
      <g transform="translate(194.328795 399.078438)scale(0.1 -0.1)">
       <defs>
        <path d="M 525 4666 
L 3525 4666 
L 3525 4397 
L 1831 0 
L 1172 0 
L 2766 4134 
L 525 4134 
L 525 4666 
z
" id="DejaVuSans-37" transform="scale(0.015625)"/>
       </defs>
       <use xlink:href="#DejaVuSans-30"/>
       <use x="63.623047" xlink:href="#DejaVuSans-2e"/>
       <use x="95.410156" xlink:href="#DejaVuSans-37"/>
       <use x="159.033203" xlink:href="#DejaVuSans-35"/>
      </g>
     </g>
    </g>
    <g id="xtick_5">
     <g id="line2d_5">
      <g>
       <use style="stroke:#000000;stroke-width:0.8;" x="250.876083" xlink:href="#mb940323b04" y="384.48"/>
      </g>
     </g>
     <g id="text_5">
      <!-- 1.00 -->
      <g transform="translate(239.74327 399.078438)scale(0.1 -0.1)">
       <defs>
        <path d="M 794 531 
L 1825 531 
L 1825 4091 
L 703 3866 
L 703 4441 
L 1819 4666 
L 2450 4666 
L 2450 531 
L 3481 531 
L 3481 0 
L 794 0 
L 794 531 
z
" id="DejaVuSans-31" transform="scale(0.015625)"/>
       </defs>
       <use xlink:href="#DejaVuSans-31"/>
       <use x="63.623047" xlink:href="#DejaVuSans-2e"/>
       <use x="95.410156" xlink:href="#DejaVuSans-30"/>
       <use x="159.033203" xlink:href="#DejaVuSans-30"/>
      </g>
     </g>
    </g>
    <g id="xtick_6">
     <g id="line2d_6">
      <g>
       <use style="stroke:#000000;stroke-width:0.8;" x="296.290558" xlink:href="#mb940323b04" y="384.48"/>
      </g>
     </g>
     <g id="text_6">
      <!-- 1.25 -->
      <g transform="translate(285.157746 399.078438)scale(0.1 -0.1)">
       <use xlink:href="#DejaVuSans-31"/>
       <use x="63.623047" xlink:href="#DejaVuSans-2e"/>
       <use x="95.410156" xlink:href="#DejaVuSans-32"/>
       <use x="159.033203" xlink:href="#DejaVuSans-35"/>
      </g>
     </g>
    </g>
    <g id="xtick_7">
     <g id="line2d_7">
      <g>
       <use style="stroke:#000000;stroke-width:0.8;" x="341.705034" xlink:href="#mb940323b04" y="384.48"/>
      </g>
     </g>
     <g id="text_7">
      <!-- 1.50 -->
      <g transform="translate(330.572221 399.078438)scale(0.1 -0.1)">
       <use xlink:href="#DejaVuSans-31"/>
       <use x="63.623047" xlink:href="#DejaVuSans-2e"/>
       <use x="95.410156" xlink:href="#DejaVuSans-35"/>
       <use x="159.033203" xlink:href="#DejaVuSans-30"/>
      </g>
     </g>
    </g>
    <g id="xtick_8">
     <g id="line2d_8">
      <g>
       <use style="stroke:#000000;stroke-width:0.8;" x="387.119509" xlink:href="#mb940323b04" y="384.48"/>
      </g>
     </g>
     <g id="text_8">
      <!-- 1.75 -->
      <g transform="translate(375.986696 399.078438)scale(0.1 -0.1)">
       <use xlink:href="#DejaVuSans-31"/>
       <use x="63.623047" xlink:href="#DejaVuSans-2e"/>
       <use x="95.410156" xlink:href="#DejaVuSans-37"/>
       <use x="159.033203" xlink:href="#DejaVuSans-35"/>
      </g>
     </g>
    </g>
    <g id="text_9">
     <!-- Entropy -->
     <g transform="translate(201.975781 412.756563)scale(0.1 -0.1)">
      <defs>
       <path d="M 628 4666 
L 3578 4666 
L 3578 4134 
L 1259 4134 
L 1259 2753 
L 3481 2753 
L 3481 2222 
L 1259 2222 
L 1259 531 
L 3634 531 
L 3634 0 
L 628 0 
L 628 4666 
z
" id="DejaVuSans-45" transform="scale(0.015625)"/>
       <path d="M 3513 2113 
L 3513 0 
L 2938 0 
L 2938 2094 
Q 2938 2591 2744 2837 
Q 2550 3084 2163 3084 
Q 1697 3084 1428 2787 
Q 1159 2491 1159 1978 
L 1159 0 
L 581 0 
L 581 3500 
L 1159 3500 
L 1159 2956 
Q 1366 3272 1645 3428 
Q 1925 3584 2291 3584 
Q 2894 3584 3203 3211 
Q 3513 2838 3513 2113 
z
" id="DejaVuSans-6e" transform="scale(0.015625)"/>
       <path d="M 1172 4494 
L 1172 3500 
L 2356 3500 
L 2356 3053 
L 1172 3053 
L 1172 1153 
Q 1172 725 1289 603 
Q 1406 481 1766 481 
L 2356 481 
L 2356 0 
L 1766 0 
Q 1100 0 847 248 
Q 594 497 594 1153 
L 594 3053 
L 172 3053 
L 172 3500 
L 594 3500 
L 594 4494 
L 1172 4494 
z
" id="DejaVuSans-74" transform="scale(0.015625)"/>
       <path d="M 2631 2963 
Q 2534 3019 2420 3045 
Q 2306 3072 2169 3072 
Q 1681 3072 1420 2755 
Q 1159 2438 1159 1844 
L 1159 0 
L 581 0 
L 581 3500 
L 1159 3500 
L 1159 2956 
Q 1341 3275 1631 3429 
Q 1922 3584 2338 3584 
Q 2397 3584 2469 3576 
Q 2541 3569 2628 3553 
L 2631 2963 
z
" id="DejaVuSans-72" transform="scale(0.015625)"/>
       <path d="M 1959 3097 
Q 1497 3097 1228 2736 
Q 959 2375 959 1747 
Q 959 1119 1226 758 
Q 1494 397 1959 397 
Q 2419 397 2687 759 
Q 2956 1122 2956 1747 
Q 2956 2369 2687 2733 
Q 2419 3097 1959 3097 
z
M 1959 3584 
Q 2709 3584 3137 3096 
Q 3566 2609 3566 1747 
Q 3566 888 3137 398 
Q 2709 -91 1959 -91 
Q 1206 -91 779 398 
Q 353 888 353 1747 
Q 353 2609 779 3096 
Q 1206 3584 1959 3584 
z
" id="DejaVuSans-6f" transform="scale(0.015625)"/>
       <path d="M 1159 525 
L 1159 -1331 
L 581 -1331 
L 581 3500 
L 1159 3500 
L 1159 2969 
Q 1341 3281 1617 3432 
Q 1894 3584 2278 3584 
Q 2916 3584 3314 3078 
Q 3713 2572 3713 1747 
Q 3713 922 3314 415 
Q 2916 -91 2278 -91 
Q 1894 -91 1617 61 
Q 1341 213 1159 525 
z
M 3116 1747 
Q 3116 2381 2855 2742 
Q 2594 3103 2138 3103 
Q 1681 3103 1420 2742 
Q 1159 2381 1159 1747 
Q 1159 1113 1420 752 
Q 1681 391 2138 391 
Q 2594 391 2855 752 
Q 3116 1113 3116 1747 
z
" id="DejaVuSans-70" transform="scale(0.015625)"/>
       <path d="M 2059 -325 
Q 1816 -950 1584 -1140 
Q 1353 -1331 966 -1331 
L 506 -1331 
L 506 -850 
L 844 -850 
Q 1081 -850 1212 -737 
Q 1344 -625 1503 -206 
L 1606 56 
L 191 3500 
L 800 3500 
L 1894 763 
L 2988 3500 
L 3597 3500 
L 2059 -325 
z
" id="DejaVuSans-79" transform="scale(0.015625)"/>
      </defs>
      <use xlink:href="#DejaVuSans-45"/>
      <use x="63.183594" xlink:href="#DejaVuSans-6e"/>
      <use x="126.5625" xlink:href="#DejaVuSans-74"/>
      <use x="165.771484" xlink:href="#DejaVuSans-72"/>
      <use x="204.634766" xlink:href="#DejaVuSans-6f"/>
      <use x="265.816406" xlink:href="#DejaVuSans-70"/>
      <use x="329.292969" xlink:href="#DejaVuSans-79"/>
     </g>
    </g>
   </g>
   <g id="matplotlib.axis_2">
    <g id="ytick_1">
     <g id="line2d_9">
      <defs>
       <path d="M 0 0 
L -3.5 0 
" id="me6318a57ab" style="stroke:#000000;stroke-width:0.8;"/>
      </defs>
      <g>
       <use style="stroke:#000000;stroke-width:0.8;" x="54" xlink:href="#me6318a57ab" y="343.091443"/>
      </g>
     </g>
     <g id="text_10">
      <!-- 0.075 -->
      <g transform="translate(18.371875 346.890662)scale(0.1 -0.1)">
       <use xlink:href="#DejaVuSans-30"/>
       <use x="63.623047" xlink:href="#DejaVuSans-2e"/>
       <use x="95.410156" xlink:href="#DejaVuSans-30"/>
       <use x="159.033203" xlink:href="#DejaVuSans-37"/>
       <use x="222.65625" xlink:href="#DejaVuSans-35"/>
      </g>
     </g>
    </g>
    <g id="ytick_2">
     <g id="line2d_10">
      <g>
       <use style="stroke:#000000;stroke-width:0.8;" x="54" xlink:href="#me6318a57ab" y="297.852599"/>
      </g>
     </g>
     <g id="text_11">
      <!-- 0.080 -->
      <g transform="translate(18.371875 301.651818)scale(0.1 -0.1)">
       <defs>
        <path d="M 2034 2216 
Q 1584 2216 1326 1975 
Q 1069 1734 1069 1313 
Q 1069 891 1326 650 
Q 1584 409 2034 409 
Q 2484 409 2743 651 
Q 3003 894 3003 1313 
Q 3003 1734 2745 1975 
Q 2488 2216 2034 2216 
z
M 1403 2484 
Q 997 2584 770 2862 
Q 544 3141 544 3541 
Q 544 4100 942 4425 
Q 1341 4750 2034 4750 
Q 2731 4750 3128 4425 
Q 3525 4100 3525 3541 
Q 3525 3141 3298 2862 
Q 3072 2584 2669 2484 
Q 3125 2378 3379 2068 
Q 3634 1759 3634 1313 
Q 3634 634 3220 271 
Q 2806 -91 2034 -91 
Q 1263 -91 848 271 
Q 434 634 434 1313 
Q 434 1759 690 2068 
Q 947 2378 1403 2484 
z
M 1172 3481 
Q 1172 3119 1398 2916 
Q 1625 2713 2034 2713 
Q 2441 2713 2670 2916 
Q 2900 3119 2900 3481 
Q 2900 3844 2670 4047 
Q 2441 4250 2034 4250 
Q 1625 4250 1398 4047 
Q 1172 3844 1172 3481 
z
" id="DejaVuSans-38" transform="scale(0.015625)"/>
       </defs>
       <use xlink:href="#DejaVuSans-30"/>
       <use x="63.623047" xlink:href="#DejaVuSans-2e"/>
       <use x="95.410156" xlink:href="#DejaVuSans-30"/>
       <use x="159.033203" xlink:href="#DejaVuSans-38"/>
       <use x="222.65625" xlink:href="#DejaVuSans-30"/>
      </g>
     </g>
    </g>
    <g id="ytick_3">
     <g id="line2d_11">
      <g>
       <use style="stroke:#000000;stroke-width:0.8;" x="54" xlink:href="#me6318a57ab" y="252.613756"/>
      </g>
     </g>
     <g id="text_12">
      <!-- 0.085 -->
      <g transform="translate(18.371875 256.412975)scale(0.1 -0.1)">
       <use xlink:href="#DejaVuSans-30"/>
       <use x="63.623047" xlink:href="#DejaVuSans-2e"/>
       <use x="95.410156" xlink:href="#DejaVuSans-30"/>
       <use x="159.033203" xlink:href="#DejaVuSans-38"/>
       <use x="222.65625" xlink:href="#DejaVuSans-35"/>
      </g>
     </g>
    </g>
    <g id="ytick_4">
     <g id="line2d_12">
      <g>
       <use style="stroke:#000000;stroke-width:0.8;" x="54" xlink:href="#me6318a57ab" y="207.374913"/>
      </g>
     </g>
     <g id="text_13">
      <!-- 0.090 -->
      <g transform="translate(18.371875 211.174131)scale(0.1 -0.1)">
       <defs>
        <path d="M 703 97 
L 703 672 
Q 941 559 1184 500 
Q 1428 441 1663 441 
Q 2288 441 2617 861 
Q 2947 1281 2994 2138 
Q 2813 1869 2534 1725 
Q 2256 1581 1919 1581 
Q 1219 1581 811 2004 
Q 403 2428 403 3163 
Q 403 3881 828 4315 
Q 1253 4750 1959 4750 
Q 2769 4750 3195 4129 
Q 3622 3509 3622 2328 
Q 3622 1225 3098 567 
Q 2575 -91 1691 -91 
Q 1453 -91 1209 -44 
Q 966 3 703 97 
z
M 1959 2075 
Q 2384 2075 2632 2365 
Q 2881 2656 2881 3163 
Q 2881 3666 2632 3958 
Q 2384 4250 1959 4250 
Q 1534 4250 1286 3958 
Q 1038 3666 1038 3163 
Q 1038 2656 1286 2365 
Q 1534 2075 1959 2075 
z
" id="DejaVuSans-39" transform="scale(0.015625)"/>
       </defs>
       <use xlink:href="#DejaVuSans-30"/>
       <use x="63.623047" xlink:href="#DejaVuSans-2e"/>
       <use x="95.410156" xlink:href="#DejaVuSans-30"/>
       <use x="159.033203" xlink:href="#DejaVuSans-39"/>
       <use x="222.65625" xlink:href="#DejaVuSans-30"/>
      </g>
     </g>
    </g>
    <g id="ytick_5">
     <g id="line2d_13">
      <g>
       <use style="stroke:#000000;stroke-width:0.8;" x="54" xlink:href="#me6318a57ab" y="162.136069"/>
      </g>
     </g>
     <g id="text_14">
      <!-- 0.095 -->
      <g transform="translate(18.371875 165.935288)scale(0.1 -0.1)">
       <use xlink:href="#DejaVuSans-30"/>
       <use x="63.623047" xlink:href="#DejaVuSans-2e"/>
       <use x="95.410156" xlink:href="#DejaVuSans-30"/>
       <use x="159.033203" xlink:href="#DejaVuSans-39"/>
       <use x="222.65625" xlink:href="#DejaVuSans-35"/>
      </g>
     </g>
    </g>
    <g id="ytick_6">
     <g id="line2d_14">
      <g>
       <use style="stroke:#000000;stroke-width:0.8;" x="54" xlink:href="#me6318a57ab" y="116.897226"/>
      </g>
     </g>
     <g id="text_15">
      <!-- 0.100 -->
      <g transform="translate(18.371875 120.696444)scale(0.1 -0.1)">
       <use xlink:href="#DejaVuSans-30"/>
       <use x="63.623047" xlink:href="#DejaVuSans-2e"/>
       <use x="95.410156" xlink:href="#DejaVuSans-31"/>
       <use x="159.033203" xlink:href="#DejaVuSans-30"/>
       <use x="222.65625" xlink:href="#DejaVuSans-30"/>
      </g>
     </g>
    </g>
    <g id="ytick_7">
     <g id="line2d_15">
      <g>
       <use style="stroke:#000000;stroke-width:0.8;" x="54" xlink:href="#me6318a57ab" y="71.658382"/>
      </g>
     </g>
     <g id="text_16">
      <!-- 0.105 -->
      <g transform="translate(18.371875 75.457601)scale(0.1 -0.1)">
       <use xlink:href="#DejaVuSans-30"/>
       <use x="63.623047" xlink:href="#DejaVuSans-2e"/>
       <use x="95.410156" xlink:href="#DejaVuSans-31"/>
       <use x="159.033203" xlink:href="#DejaVuSans-30"/>
       <use x="222.65625" xlink:href="#DejaVuSans-35"/>
      </g>
     </g>
    </g>
    <g id="text_17">
     <!-- Reduced Chi2 -->
     <g transform="translate(12.292187 252.648281)rotate(-90)scale(0.1 -0.1)">
      <defs>
       <path d="M 2841 2188 
Q 3044 2119 3236 1894 
Q 3428 1669 3622 1275 
L 4263 0 
L 3584 0 
L 2988 1197 
Q 2756 1666 2539 1819 
Q 2322 1972 1947 1972 
L 1259 1972 
L 1259 0 
L 628 0 
L 628 4666 
L 2053 4666 
Q 2853 4666 3247 4331 
Q 3641 3997 3641 3322 
Q 3641 2881 3436 2590 
Q 3231 2300 2841 2188 
z
M 1259 4147 
L 1259 2491 
L 2053 2491 
Q 2509 2491 2742 2702 
Q 2975 2913 2975 3322 
Q 2975 3731 2742 3939 
Q 2509 4147 2053 4147 
L 1259 4147 
z
" id="DejaVuSans-52" transform="scale(0.015625)"/>
       <path d="M 3597 1894 
L 3597 1613 
L 953 1613 
Q 991 1019 1311 708 
Q 1631 397 2203 397 
Q 2534 397 2845 478 
Q 3156 559 3463 722 
L 3463 178 
Q 3153 47 2828 -22 
Q 2503 -91 2169 -91 
Q 1331 -91 842 396 
Q 353 884 353 1716 
Q 353 2575 817 3079 
Q 1281 3584 2069 3584 
Q 2775 3584 3186 3129 
Q 3597 2675 3597 1894 
z
M 3022 2063 
Q 3016 2534 2758 2815 
Q 2500 3097 2075 3097 
Q 1594 3097 1305 2825 
Q 1016 2553 972 2059 
L 3022 2063 
z
" id="DejaVuSans-65" transform="scale(0.015625)"/>
       <path d="M 2906 2969 
L 2906 4863 
L 3481 4863 
L 3481 0 
L 2906 0 
L 2906 525 
Q 2725 213 2448 61 
Q 2172 -91 1784 -91 
Q 1150 -91 751 415 
Q 353 922 353 1747 
Q 353 2572 751 3078 
Q 1150 3584 1784 3584 
Q 2172 3584 2448 3432 
Q 2725 3281 2906 2969 
z
M 947 1747 
Q 947 1113 1208 752 
Q 1469 391 1925 391 
Q 2381 391 2643 752 
Q 2906 1113 2906 1747 
Q 2906 2381 2643 2742 
Q 2381 3103 1925 3103 
Q 1469 3103 1208 2742 
Q 947 2381 947 1747 
z
" id="DejaVuSans-64" transform="scale(0.015625)"/>
       <path d="M 544 1381 
L 544 3500 
L 1119 3500 
L 1119 1403 
Q 1119 906 1312 657 
Q 1506 409 1894 409 
Q 2359 409 2629 706 
Q 2900 1003 2900 1516 
L 2900 3500 
L 3475 3500 
L 3475 0 
L 2900 0 
L 2900 538 
Q 2691 219 2414 64 
Q 2138 -91 1772 -91 
Q 1169 -91 856 284 
Q 544 659 544 1381 
z
M 1991 3584 
L 1991 3584 
z
" id="DejaVuSans-75" transform="scale(0.015625)"/>
       <path d="M 3122 3366 
L 3122 2828 
Q 2878 2963 2633 3030 
Q 2388 3097 2138 3097 
Q 1578 3097 1268 2742 
Q 959 2388 959 1747 
Q 959 1106 1268 751 
Q 1578 397 2138 397 
Q 2388 397 2633 464 
Q 2878 531 3122 666 
L 3122 134 
Q 2881 22 2623 -34 
Q 2366 -91 2075 -91 
Q 1284 -91 818 406 
Q 353 903 353 1747 
Q 353 2603 823 3093 
Q 1294 3584 2113 3584 
Q 2378 3584 2631 3529 
Q 2884 3475 3122 3366 
z
" id="DejaVuSans-63" transform="scale(0.015625)"/>
       <path id="DejaVuSans-20" transform="scale(0.015625)"/>
       <path d="M 4122 4306 
L 4122 3641 
Q 3803 3938 3442 4084 
Q 3081 4231 2675 4231 
Q 1875 4231 1450 3742 
Q 1025 3253 1025 2328 
Q 1025 1406 1450 917 
Q 1875 428 2675 428 
Q 3081 428 3442 575 
Q 3803 722 4122 1019 
L 4122 359 
Q 3791 134 3420 21 
Q 3050 -91 2638 -91 
Q 1578 -91 968 557 
Q 359 1206 359 2328 
Q 359 3453 968 4101 
Q 1578 4750 2638 4750 
Q 3056 4750 3426 4639 
Q 3797 4528 4122 4306 
z
" id="DejaVuSans-43" transform="scale(0.015625)"/>
       <path d="M 3513 2113 
L 3513 0 
L 2938 0 
L 2938 2094 
Q 2938 2591 2744 2837 
Q 2550 3084 2163 3084 
Q 1697 3084 1428 2787 
Q 1159 2491 1159 1978 
L 1159 0 
L 581 0 
L 581 4863 
L 1159 4863 
L 1159 2956 
Q 1366 3272 1645 3428 
Q 1925 3584 2291 3584 
Q 2894 3584 3203 3211 
Q 3513 2838 3513 2113 
z
" id="DejaVuSans-68" transform="scale(0.015625)"/>
       <path d="M 603 3500 
L 1178 3500 
L 1178 0 
L 603 0 
L 603 3500 
z
M 603 4863 
L 1178 4863 
L 1178 4134 
L 603 4134 
L 603 4863 
z
" id="DejaVuSans-69" transform="scale(0.015625)"/>
      </defs>
      <use xlink:href="#DejaVuSans-52"/>
      <use x="64.982422" xlink:href="#DejaVuSans-65"/>
      <use x="126.505859" xlink:href="#DejaVuSans-64"/>
      <use x="189.982422" xlink:href="#DejaVuSans-75"/>
      <use x="253.361328" xlink:href="#DejaVuSans-63"/>
      <use x="308.341797" xlink:href="#DejaVuSans-65"/>
      <use x="369.865234" xlink:href="#DejaVuSans-64"/>
      <use x="433.341797" xlink:href="#DejaVuSans-20"/>
      <use x="465.128906" xlink:href="#DejaVuSans-43"/>
      <use x="534.953125" xlink:href="#DejaVuSans-68"/>
      <use x="598.332031" xlink:href="#DejaVuSans-69"/>
      <use x="626.115234" xlink:href="#DejaVuSans-32"/>
     </g>
    </g>
   </g>
   <g id="patch_3">
    <path d="M 54 384.48 
L 54 51.84 
" style="fill:none;stroke:#000000;stroke-linecap:square;stroke-linejoin:miter;stroke-width:0.8;"/>
   </g>
   <g id="patch_4">
    <path d="M 388.8 384.48 
L 388.8 51.84 
" style="fill:none;stroke:#000000;stroke-linecap:square;stroke-linejoin:miter;stroke-width:0.8;"/>
   </g>
   <g id="patch_5">
    <path d="M 54 384.48 
L 388.8 384.48 
" style="fill:none;stroke:#000000;stroke-linecap:square;stroke-linejoin:miter;stroke-width:0.8;"/>
   </g>
   <g id="patch_6">
    <path d="M 54 51.84 
L 388.8 51.84 
" style="fill:none;stroke:#000000;stroke-linecap:square;stroke-linejoin:miter;stroke-width:0.8;"/>
   </g>
   <g id="legend_1">
    <g id="patch_7">
     <path d="M 390.8 384.48 
L 495.965625 384.48 
Q 497.965625 384.48 497.965625 382.48 
L 497.965625 -27.5075 
Q 497.965625 -29.5075 495.965625 -29.5075 
L 390.8 -29.5075 
Q 388.8 -29.5075 388.8 -27.5075 
L 388.8 382.48 
Q 388.8 384.48 390.8 384.48 
z
" style="fill:#ffffff;opacity:0.8;stroke:#cccccc;stroke-linejoin:miter;"/>
    </g>
    <g id="PathCollection_30">
     <g/>
    </g>
    <g id="text_18">
     <!-- 1000000.0 -->
     <g transform="translate(420.8 -17.909063)scale(0.1 -0.1)">
      <use xlink:href="#DejaVuSans-31"/>
      <use x="63.623047" xlink:href="#DejaVuSans-30"/>
      <use x="127.246094" xlink:href="#DejaVuSans-30"/>
      <use x="190.869141" xlink:href="#DejaVuSans-30"/>
      <use x="254.492188" xlink:href="#DejaVuSans-30"/>
      <use x="318.115234" xlink:href="#DejaVuSans-30"/>
      <use x="381.738281" xlink:href="#DejaVuSans-30"/>
      <use x="445.361328" xlink:href="#DejaVuSans-2e"/>
      <use x="477.148438" xlink:href="#DejaVuSans-30"/>
     </g>
    </g>
    <g id="PathCollection_31">
     <g/>
    </g>
    <g id="text_19">
     <!-- 100000.0 -->
     <g transform="translate(420.8 -3.230938)scale(0.1 -0.1)">
      <use xlink:href="#DejaVuSans-31"/>
      <use x="63.623047" xlink:href="#DejaVuSans-30"/>
      <use x="127.246094" xlink:href="#DejaVuSans-30"/>
      <use x="190.869141" xlink:href="#DejaVuSans-30"/>
      <use x="254.492188" xlink:href="#DejaVuSans-30"/>
      <use x="318.115234" xlink:href="#DejaVuSans-30"/>
      <use x="381.738281" xlink:href="#DejaVuSans-2e"/>
      <use x="413.525391" xlink:href="#DejaVuSans-30"/>
     </g>
    </g>
    <g id="PathCollection_32">
     <g>
      <use style="fill:#4a53fb;stroke:#4a53fb;" x="402.8" xlink:href="#m5d16da42ef" y="8.822187"/>
     </g>
    </g>
    <g id="text_20">
     <!-- 10000.0 -->
     <g transform="translate(420.8 11.447187)scale(0.1 -0.1)">
      <use xlink:href="#DejaVuSans-31"/>
      <use x="63.623047" xlink:href="#DejaVuSans-30"/>
      <use x="127.246094" xlink:href="#DejaVuSans-30"/>
      <use x="190.869141" xlink:href="#DejaVuSans-30"/>
      <use x="254.492188" xlink:href="#DejaVuSans-30"/>
      <use x="318.115234" xlink:href="#DejaVuSans-2e"/>
      <use x="349.902344" xlink:href="#DejaVuSans-30"/>
     </g>
    </g>
    <g id="PathCollection_33">
     <g>
      <use style="fill:#386df9;stroke:#386df9;" x="402.8" xlink:href="#m6cbf31c075" y="23.500312"/>
     </g>
    </g>
    <g id="text_21">
     <!-- 1000.0 -->
     <g transform="translate(420.8 26.125312)scale(0.1 -0.1)">
      <use xlink:href="#DejaVuSans-31"/>
      <use x="63.623047" xlink:href="#DejaVuSans-30"/>
      <use x="127.246094" xlink:href="#DejaVuSans-30"/>
      <use x="190.869141" xlink:href="#DejaVuSans-30"/>
      <use x="254.492188" xlink:href="#DejaVuSans-2e"/>
      <use x="286.279297" xlink:href="#DejaVuSans-30"/>
     </g>
    </g>
    <g id="PathCollection_34">
     <g>
      <use style="fill:#2686f5;stroke:#2686f5;" x="402.8" xlink:href="#mc1be991e1b" y="38.178437"/>
     </g>
    </g>
    <g id="text_22">
     <!-- 100.0 -->
     <g transform="translate(420.8 40.803437)scale(0.1 -0.1)">
      <use xlink:href="#DejaVuSans-31"/>
      <use x="63.623047" xlink:href="#DejaVuSans-30"/>
      <use x="127.246094" xlink:href="#DejaVuSans-30"/>
      <use x="190.869141" xlink:href="#DejaVuSans-2e"/>
      <use x="222.65625" xlink:href="#DejaVuSans-30"/>
     </g>
    </g>
    <g id="PathCollection_35">
     <g>
      <use style="fill:#149df1;stroke:#149df1;" x="402.8" xlink:href="#m5421fb2c3e" y="52.856562"/>
     </g>
    </g>
    <g id="text_23">
     <!-- 55.0 -->
     <g transform="translate(420.8 55.481562)scale(0.1 -0.1)">
      <use xlink:href="#DejaVuSans-35"/>
      <use x="63.623047" xlink:href="#DejaVuSans-35"/>
      <use x="127.246094" xlink:href="#DejaVuSans-2e"/>
      <use x="159.033203" xlink:href="#DejaVuSans-30"/>
     </g>
    </g>
    <g id="PathCollection_36">
     <g>
      <use style="fill:#00b5eb;stroke:#00b5eb;" x="402.8" xlink:href="#mef333f35eb" y="67.534687"/>
     </g>
    </g>
    <g id="text_24">
     <!-- 32.5 -->
     <g transform="translate(420.8 70.159687)scale(0.1 -0.1)">
      <defs>
       <path d="M 2597 2516 
Q 3050 2419 3304 2112 
Q 3559 1806 3559 1356 
Q 3559 666 3084 287 
Q 2609 -91 1734 -91 
Q 1441 -91 1130 -33 
Q 819 25 488 141 
L 488 750 
Q 750 597 1062 519 
Q 1375 441 1716 441 
Q 2309 441 2620 675 
Q 2931 909 2931 1356 
Q 2931 1769 2642 2001 
Q 2353 2234 1838 2234 
L 1294 2234 
L 1294 2753 
L 1863 2753 
Q 2328 2753 2575 2939 
Q 2822 3125 2822 3475 
Q 2822 3834 2567 4026 
Q 2313 4219 1838 4219 
Q 1578 4219 1281 4162 
Q 984 4106 628 3988 
L 628 4550 
Q 988 4650 1302 4700 
Q 1616 4750 1894 4750 
Q 2613 4750 3031 4423 
Q 3450 4097 3450 3541 
Q 3450 3153 3228 2886 
Q 3006 2619 2597 2516 
z
" id="DejaVuSans-33" transform="scale(0.015625)"/>
      </defs>
      <use xlink:href="#DejaVuSans-33"/>
      <use x="63.623047" xlink:href="#DejaVuSans-32"/>
      <use x="127.246094" xlink:href="#DejaVuSans-2e"/>
      <use x="159.033203" xlink:href="#DejaVuSans-35"/>
     </g>
    </g>
    <g id="PathCollection_37">
     <g>
      <use style="fill:#12c8e6;stroke:#12c8e6;" x="402.8" xlink:href="#m0b65157bdf" y="82.212812"/>
     </g>
    </g>
    <g id="text_25">
     <!-- 21.25 -->
     <g transform="translate(420.8 84.837812)scale(0.1 -0.1)">
      <use xlink:href="#DejaVuSans-32"/>
      <use x="63.623047" xlink:href="#DejaVuSans-31"/>
      <use x="127.246094" xlink:href="#DejaVuSans-2e"/>
      <use x="159.033203" xlink:href="#DejaVuSans-32"/>
      <use x="222.65625" xlink:href="#DejaVuSans-35"/>
     </g>
    </g>
    <g id="PathCollection_38">
     <g>
      <use style="fill:#24d8df;stroke:#24d8df;" x="402.8" xlink:href="#m1a62ce9744" y="96.890937"/>
     </g>
    </g>
    <g id="text_26">
     <!-- 15.625 -->
     <g transform="translate(420.8 99.515937)scale(0.1 -0.1)">
      <defs>
       <path d="M 2113 2584 
Q 1688 2584 1439 2293 
Q 1191 2003 1191 1497 
Q 1191 994 1439 701 
Q 1688 409 2113 409 
Q 2538 409 2786 701 
Q 3034 994 3034 1497 
Q 3034 2003 2786 2293 
Q 2538 2584 2113 2584 
z
M 3366 4563 
L 3366 3988 
Q 3128 4100 2886 4159 
Q 2644 4219 2406 4219 
Q 1781 4219 1451 3797 
Q 1122 3375 1075 2522 
Q 1259 2794 1537 2939 
Q 1816 3084 2150 3084 
Q 2853 3084 3261 2657 
Q 3669 2231 3669 1497 
Q 3669 778 3244 343 
Q 2819 -91 2113 -91 
Q 1303 -91 875 529 
Q 447 1150 447 2328 
Q 447 3434 972 4092 
Q 1497 4750 2381 4750 
Q 2619 4750 2861 4703 
Q 3103 4656 3366 4563 
z
" id="DejaVuSans-36" transform="scale(0.015625)"/>
      </defs>
      <use xlink:href="#DejaVuSans-31"/>
      <use x="63.623047" xlink:href="#DejaVuSans-35"/>
      <use x="127.246094" xlink:href="#DejaVuSans-2e"/>
      <use x="159.033203" xlink:href="#DejaVuSans-36"/>
      <use x="222.65625" xlink:href="#DejaVuSans-32"/>
      <use x="286.279297" xlink:href="#DejaVuSans-35"/>
     </g>
    </g>
    <g id="PathCollection_39">
     <g>
      <use style="fill:#37e6d8;stroke:#37e6d8;" x="402.8" xlink:href="#m6b5cc279a6" y="111.569062"/>
     </g>
    </g>
    <g id="text_27">
     <!-- 14.21875 -->
     <g transform="translate(420.8 114.194062)scale(0.1 -0.1)">
      <defs>
       <path d="M 2419 4116 
L 825 1625 
L 2419 1625 
L 2419 4116 
z
M 2253 4666 
L 3047 4666 
L 3047 1625 
L 3713 1625 
L 3713 1100 
L 3047 1100 
L 3047 0 
L 2419 0 
L 2419 1100 
L 313 1100 
L 313 1709 
L 2253 4666 
z
" id="DejaVuSans-34" transform="scale(0.015625)"/>
      </defs>
      <use xlink:href="#DejaVuSans-31"/>
      <use x="63.623047" xlink:href="#DejaVuSans-34"/>
      <use x="127.246094" xlink:href="#DejaVuSans-2e"/>
      <use x="159.033203" xlink:href="#DejaVuSans-32"/>
      <use x="222.65625" xlink:href="#DejaVuSans-31"/>
      <use x="286.279297" xlink:href="#DejaVuSans-38"/>
      <use x="349.902344" xlink:href="#DejaVuSans-37"/>
      <use x="413.525391" xlink:href="#DejaVuSans-35"/>
     </g>
    </g>
    <g id="PathCollection_40">
     <g>
      <use style="fill:#48f1d0;stroke:#48f1d0;" x="402.8" xlink:href="#m61f09059cb" y="126.247187"/>
     </g>
    </g>
    <g id="text_28">
     <!-- 12.8125 -->
     <g transform="translate(420.8 128.872187)scale(0.1 -0.1)">
      <use xlink:href="#DejaVuSans-31"/>
      <use x="63.623047" xlink:href="#DejaVuSans-32"/>
      <use x="127.246094" xlink:href="#DejaVuSans-2e"/>
      <use x="159.033203" xlink:href="#DejaVuSans-38"/>
      <use x="222.65625" xlink:href="#DejaVuSans-31"/>
      <use x="286.279297" xlink:href="#DejaVuSans-32"/>
      <use x="349.902344" xlink:href="#DejaVuSans-35"/>
     </g>
    </g>
    <g id="PathCollection_41">
     <g>
      <use style="fill:#5af8c8;stroke:#5af8c8;" x="402.8" xlink:href="#me1531106b3" y="140.925312"/>
     </g>
    </g>
    <g id="text_29">
     <!-- 12.109375 -->
     <g transform="translate(420.8 143.550312)scale(0.1 -0.1)">
      <use xlink:href="#DejaVuSans-31"/>
      <use x="63.623047" xlink:href="#DejaVuSans-32"/>
      <use x="127.246094" xlink:href="#DejaVuSans-2e"/>
      <use x="159.033203" xlink:href="#DejaVuSans-31"/>
      <use x="222.65625" xlink:href="#DejaVuSans-30"/>
      <use x="286.279297" xlink:href="#DejaVuSans-39"/>
      <use x="349.902344" xlink:href="#DejaVuSans-33"/>
      <use x="413.525391" xlink:href="#DejaVuSans-37"/>
      <use x="477.148438" xlink:href="#DejaVuSans-35"/>
     </g>
    </g>
    <g id="PathCollection_42">
     <g>
      <use style="fill:#6dfdbf;stroke:#6dfdbf;" x="402.8" xlink:href="#m7e74556e72" y="155.603437"/>
     </g>
    </g>
    <g id="text_30">
     <!-- 11.7578125 -->
     <g transform="translate(420.8 158.228437)scale(0.1 -0.1)">
      <use xlink:href="#DejaVuSans-31"/>
      <use x="63.623047" xlink:href="#DejaVuSans-31"/>
      <use x="127.246094" xlink:href="#DejaVuSans-2e"/>
      <use x="159.033203" xlink:href="#DejaVuSans-37"/>
      <use x="222.65625" xlink:href="#DejaVuSans-35"/>
      <use x="286.279297" xlink:href="#DejaVuSans-37"/>
      <use x="349.902344" xlink:href="#DejaVuSans-38"/>
      <use x="413.525391" xlink:href="#DejaVuSans-31"/>
      <use x="477.148438" xlink:href="#DejaVuSans-32"/>
      <use x="540.771484" xlink:href="#DejaVuSans-35"/>
     </g>
    </g>
    <g id="PathCollection_43">
     <g>
      <use style="fill:#80ffb4;stroke:#80ffb4;" x="402.8" xlink:href="#mcf737abc2f" y="170.281562"/>
     </g>
    </g>
    <g id="text_31">
     <!-- 11.58203125 -->
     <g transform="translate(420.8 172.906562)scale(0.1 -0.1)">
      <use xlink:href="#DejaVuSans-31"/>
      <use x="63.623047" xlink:href="#DejaVuSans-31"/>
      <use x="127.246094" xlink:href="#DejaVuSans-2e"/>
      <use x="159.033203" xlink:href="#DejaVuSans-35"/>
      <use x="222.65625" xlink:href="#DejaVuSans-38"/>
      <use x="286.279297" xlink:href="#DejaVuSans-32"/>
      <use x="349.902344" xlink:href="#DejaVuSans-30"/>
      <use x="413.525391" xlink:href="#DejaVuSans-33"/>
      <use x="477.148438" xlink:href="#DejaVuSans-31"/>
      <use x="540.771484" xlink:href="#DejaVuSans-32"/>
      <use x="604.394531" xlink:href="#DejaVuSans-35"/>
     </g>
    </g>
    <g id="PathCollection_44">
     <g>
      <use style="fill:#92fda9;stroke:#92fda9;" x="402.8" xlink:href="#m3fb05a95f2" y="184.959687"/>
     </g>
    </g>
    <g id="text_32">
     <!-- 11.494140625 -->
     <g transform="translate(420.8 187.584687)scale(0.1 -0.1)">
      <use xlink:href="#DejaVuSans-31"/>
      <use x="63.623047" xlink:href="#DejaVuSans-31"/>
      <use x="127.246094" xlink:href="#DejaVuSans-2e"/>
      <use x="159.033203" xlink:href="#DejaVuSans-34"/>
      <use x="222.65625" xlink:href="#DejaVuSans-39"/>
      <use x="286.279297" xlink:href="#DejaVuSans-34"/>
      <use x="349.902344" xlink:href="#DejaVuSans-31"/>
      <use x="413.525391" xlink:href="#DejaVuSans-34"/>
      <use x="477.148438" xlink:href="#DejaVuSans-30"/>
      <use x="540.771484" xlink:href="#DejaVuSans-36"/>
      <use x="604.394531" xlink:href="#DejaVuSans-32"/>
      <use x="668.017578" xlink:href="#DejaVuSans-35"/>
     </g>
    </g>
    <g id="PathCollection_45">
     <g>
      <use style="fill:#a4f89f;stroke:#a4f89f;" x="402.8" xlink:href="#m5ea5983932" y="199.637812"/>
     </g>
    </g>
    <g id="text_33">
     <!-- 11.40625 -->
     <g transform="translate(420.8 202.262812)scale(0.1 -0.1)">
      <use xlink:href="#DejaVuSans-31"/>
      <use x="63.623047" xlink:href="#DejaVuSans-31"/>
      <use x="127.246094" xlink:href="#DejaVuSans-2e"/>
      <use x="159.033203" xlink:href="#DejaVuSans-34"/>
      <use x="222.65625" xlink:href="#DejaVuSans-30"/>
      <use x="286.279297" xlink:href="#DejaVuSans-36"/>
      <use x="349.902344" xlink:href="#DejaVuSans-32"/>
      <use x="413.525391" xlink:href="#DejaVuSans-35"/>
     </g>
    </g>
    <g id="PathCollection_46">
     <g>
      <use style="fill:#b6f193;stroke:#b6f193;" x="402.8" xlink:href="#m9973ddc1e8" y="214.315937"/>
     </g>
    </g>
    <g id="text_34">
     <!-- 11.318359375 -->
     <g transform="translate(420.8 216.940937)scale(0.1 -0.1)">
      <use xlink:href="#DejaVuSans-31"/>
      <use x="63.623047" xlink:href="#DejaVuSans-31"/>
      <use x="127.246094" xlink:href="#DejaVuSans-2e"/>
      <use x="159.033203" xlink:href="#DejaVuSans-33"/>
      <use x="222.65625" xlink:href="#DejaVuSans-31"/>
      <use x="286.279297" xlink:href="#DejaVuSans-38"/>
      <use x="349.902344" xlink:href="#DejaVuSans-33"/>
      <use x="413.525391" xlink:href="#DejaVuSans-35"/>
      <use x="477.148438" xlink:href="#DejaVuSans-39"/>
      <use x="540.771484" xlink:href="#DejaVuSans-33"/>
      <use x="604.394531" xlink:href="#DejaVuSans-37"/>
      <use x="668.017578" xlink:href="#DejaVuSans-35"/>
     </g>
    </g>
    <g id="PathCollection_47">
     <g>
      <use style="fill:#c8e688;stroke:#c8e688;" x="402.8" xlink:href="#m2c90d79bbf" y="228.994062"/>
     </g>
    </g>
    <g id="text_35">
     <!-- 11.23046875 -->
     <g transform="translate(420.8 231.619062)scale(0.1 -0.1)">
      <use xlink:href="#DejaVuSans-31"/>
      <use x="63.623047" xlink:href="#DejaVuSans-31"/>
      <use x="127.246094" xlink:href="#DejaVuSans-2e"/>
      <use x="159.033203" xlink:href="#DejaVuSans-32"/>
      <use x="222.65625" xlink:href="#DejaVuSans-33"/>
      <use x="286.279297" xlink:href="#DejaVuSans-30"/>
      <use x="349.902344" xlink:href="#DejaVuSans-34"/>
      <use x="413.525391" xlink:href="#DejaVuSans-36"/>
      <use x="477.148438" xlink:href="#DejaVuSans-38"/>
      <use x="540.771484" xlink:href="#DejaVuSans-37"/>
      <use x="604.394531" xlink:href="#DejaVuSans-35"/>
     </g>
    </g>
    <g id="PathCollection_48">
     <g>
      <use style="fill:#dbd87b;stroke:#dbd87b;" x="402.8" xlink:href="#m3dd0e4cf98" y="243.672187"/>
     </g>
    </g>
    <g id="text_36">
     <!-- 11.0546875 -->
     <g transform="translate(420.8 246.297187)scale(0.1 -0.1)">
      <use xlink:href="#DejaVuSans-31"/>
      <use x="63.623047" xlink:href="#DejaVuSans-31"/>
      <use x="127.246094" xlink:href="#DejaVuSans-2e"/>
      <use x="159.033203" xlink:href="#DejaVuSans-30"/>
      <use x="222.65625" xlink:href="#DejaVuSans-35"/>
      <use x="286.279297" xlink:href="#DejaVuSans-34"/>
      <use x="349.902344" xlink:href="#DejaVuSans-36"/>
      <use x="413.525391" xlink:href="#DejaVuSans-38"/>
      <use x="477.148438" xlink:href="#DejaVuSans-37"/>
      <use x="540.771484" xlink:href="#DejaVuSans-35"/>
     </g>
    </g>
    <g id="PathCollection_49">
     <g>
      <use style="fill:#ecc86f;stroke:#ecc86f;" x="402.8" xlink:href="#m171cc7c34c" y="258.350312"/>
     </g>
    </g>
    <g id="text_37">
     <!-- 10.703125 -->
     <g transform="translate(420.8 260.975312)scale(0.1 -0.1)">
      <use xlink:href="#DejaVuSans-31"/>
      <use x="63.623047" xlink:href="#DejaVuSans-30"/>
      <use x="127.246094" xlink:href="#DejaVuSans-2e"/>
      <use x="159.033203" xlink:href="#DejaVuSans-37"/>
      <use x="222.65625" xlink:href="#DejaVuSans-30"/>
      <use x="286.279297" xlink:href="#DejaVuSans-33"/>
      <use x="349.902344" xlink:href="#DejaVuSans-31"/>
      <use x="413.525391" xlink:href="#DejaVuSans-32"/>
      <use x="477.148438" xlink:href="#DejaVuSans-35"/>
     </g>
    </g>
    <g id="PathCollection_50">
     <g>
      <use style="fill:#ffb360;stroke:#ffb360;" x="402.8" xlink:href="#m97504d7a69" y="273.028437"/>
     </g>
    </g>
    <g id="text_38">
     <!-- 10.0 -->
     <g transform="translate(420.8 275.653437)scale(0.1 -0.1)">
      <use xlink:href="#DejaVuSans-31"/>
      <use x="63.623047" xlink:href="#DejaVuSans-30"/>
      <use x="127.246094" xlink:href="#DejaVuSans-2e"/>
      <use x="159.033203" xlink:href="#DejaVuSans-30"/>
     </g>
    </g>
    <g id="PathCollection_51">
     <g>
      <use style="fill:#ff9d53;stroke:#ff9d53;" x="402.8" xlink:href="#m9e5e4fcf2d" y="287.706562"/>
     </g>
    </g>
    <g id="text_39">
     <!-- 9.71875 -->
     <g transform="translate(420.8 290.331562)scale(0.1 -0.1)">
      <use xlink:href="#DejaVuSans-39"/>
      <use x="63.623047" xlink:href="#DejaVuSans-2e"/>
      <use x="95.410156" xlink:href="#DejaVuSans-37"/>
      <use x="159.033203" xlink:href="#DejaVuSans-31"/>
      <use x="222.65625" xlink:href="#DejaVuSans-38"/>
      <use x="286.279297" xlink:href="#DejaVuSans-37"/>
      <use x="349.902344" xlink:href="#DejaVuSans-35"/>
     </g>
    </g>
    <g id="PathCollection_52">
     <g>
      <use style="fill:#ff8646;stroke:#ff8646;" x="402.8" xlink:href="#m2d95f3ab1b" y="302.384687"/>
     </g>
    </g>
    <g id="text_40">
     <!-- 9.4375 -->
     <g transform="translate(420.8 305.009687)scale(0.1 -0.1)">
      <use xlink:href="#DejaVuSans-39"/>
      <use x="63.623047" xlink:href="#DejaVuSans-2e"/>
      <use x="95.410156" xlink:href="#DejaVuSans-34"/>
      <use x="159.033203" xlink:href="#DejaVuSans-33"/>
      <use x="222.65625" xlink:href="#DejaVuSans-37"/>
      <use x="286.279297" xlink:href="#DejaVuSans-35"/>
     </g>
    </g>
    <g id="PathCollection_53">
     <g>
      <use style="fill:#ff6d38;stroke:#ff6d38;" x="402.8" xlink:href="#me1a0aa7082" y="317.062812"/>
     </g>
    </g>
    <g id="text_41">
     <!-- 8.875 -->
     <g transform="translate(420.8 319.687812)scale(0.1 -0.1)">
      <use xlink:href="#DejaVuSans-38"/>
      <use x="63.623047" xlink:href="#DejaVuSans-2e"/>
      <use x="95.410156" xlink:href="#DejaVuSans-38"/>
      <use x="159.033203" xlink:href="#DejaVuSans-37"/>
      <use x="222.65625" xlink:href="#DejaVuSans-35"/>
     </g>
    </g>
    <g id="PathCollection_54">
     <g>
      <use style="fill:#ff532a;stroke:#ff532a;" x="402.8" xlink:href="#m93e5929e4d" y="331.740937"/>
     </g>
    </g>
    <g id="text_42">
     <!-- 7.75 -->
     <g transform="translate(420.8 334.365937)scale(0.1 -0.1)">
      <use xlink:href="#DejaVuSans-37"/>
      <use x="63.623047" xlink:href="#DejaVuSans-2e"/>
      <use x="95.410156" xlink:href="#DejaVuSans-37"/>
      <use x="159.033203" xlink:href="#DejaVuSans-35"/>
     </g>
    </g>
    <g id="PathCollection_55">
     <g>
      <use style="fill:#ff381c;stroke:#ff381c;" x="402.8" xlink:href="#mc73775f3cd" y="346.419062"/>
     </g>
    </g>
    <g id="text_43">
     <!-- 5.5 -->
     <g transform="translate(420.8 349.044062)scale(0.1 -0.1)">
      <use xlink:href="#DejaVuSans-35"/>
      <use x="63.623047" xlink:href="#DejaVuSans-2e"/>
      <use x="95.410156" xlink:href="#DejaVuSans-35"/>
     </g>
    </g>
    <g id="PathCollection_56">
     <g>
      <use style="fill:#ff1c0e;stroke:#ff1c0e;" x="402.8" xlink:href="#m75e246230f" y="361.097187"/>
     </g>
    </g>
    <g id="text_44">
     <!-- 1.0 -->
     <g transform="translate(420.8 363.722187)scale(0.1 -0.1)">
      <use xlink:href="#DejaVuSans-31"/>
      <use x="63.623047" xlink:href="#DejaVuSans-2e"/>
      <use x="95.410156" xlink:href="#DejaVuSans-30"/>
     </g>
    </g>
    <g id="PathCollection_57">
     <g>
      <use style="fill:#ff0000;stroke:#ff0000;" x="402.8" xlink:href="#mbd07a0d43d" y="375.775312"/>
     </g>
    </g>
    <g id="text_45">
     <!-- 0.0 -->
     <g transform="translate(420.8 378.400312)scale(0.1 -0.1)">
      <use xlink:href="#DejaVuSans-30"/>
      <use x="63.623047" xlink:href="#DejaVuSans-2e"/>
      <use x="95.410156" xlink:href="#DejaVuSans-30"/>
     </g>
    </g>
   </g>
  </g>
 </g>
 <defs>
  <clipPath id="p25b2f2d918">
   <rect height="332.64" width="334.8" x="54" y="51.84"/>
  </clipPath>
 </defs>
</svg>
