<?xml version="1.0" encoding="utf-8" standalone="no"?>
<!DOCTYPE svg PUBLIC "-//W3C//DTD SVG 1.1//EN"
  "http://www.w3.org/Graphics/SVG/1.1/DTD/svg11.dtd">
<svg xmlns:xlink="http://www.w3.org/1999/xlink" width="432pt" height="432pt" viewBox="0 0 432 432" xmlns="http://www.w3.org/2000/svg" version="1.1">
 <metadata>
  <rdf:RDF xmlns:dc="http://purl.org/dc/elements/1.1/" xmlns:cc="http://creativecommons.org/ns#" xmlns:rdf="http://www.w3.org/1999/02/22-rdf-syntax-ns#">
   <cc:Work>
    <dc:type rdf:resource="http://purl.org/dc/dcmitype/StillImage"/>
    <dc:date>2022-01-29T00:57:22.693658</dc:date>
    <dc:format>image/svg+xml</dc:format>
    <dc:creator>
     <cc:Agent>
      <dc:title>Matplotlib v3.5.1, https://matplotlib.org/</dc:title>
     </cc:Agent>
    </dc:creator>
   </cc:Work>
  </rdf:RDF>
 </metadata>
 <defs>
  <style type="text/css">*{stroke-linejoin: round; stroke-linecap: butt}</style>
 </defs>
 <g id="figure_1">
  <g id="patch_1">
   <path d="M 0 432 
L 432 432 
L 432 0 
L 0 0 
z
" style="fill: #ffffff"/>
  </g>
  <g id="axes_1">
   <g id="patch_2">
    <path d="M 54 384.48 
L 388.8 384.48 
L 388.8 51.84 
L 54 51.84 
z
" style="fill: #ffffff"/>
   </g>
   <g id="PathCollection_1">
    <defs>
     <path id="m05a117ec83" d="M 0 4.472136 
C 1.186024 4.472136 2.323632 4.000923 3.162278 3.162278 
C 4.000923 2.323632 4.472136 1.186024 4.472136 0 
C 4.472136 -1.186024 4.000923 -2.323632 3.162278 -3.162278 
C 2.323632 -4.000923 1.186024 -4.472136 0 -4.472136 
C -1.186024 -4.472136 -2.323632 -4.000923 -3.162278 -3.162278 
C -4.000923 -2.323632 -4.472136 -1.186024 -4.472136 0 
C -4.472136 1.186024 -4.000923 2.323632 -3.162278 3.162278 
C -2.323632 4.000923 -1.186024 4.472136 0 4.472136 
z
" style="stroke: #6e1cff"/>
    </defs>
    <g clip-path="url(#p892686bd27)">
     <use xlink:href="#m05a117ec83" x="373.581818" y="66.96" style="fill: #6e1cff; stroke: #6e1cff"/>
    </g>
   </g>
   <g id="PathCollection_2">
    <defs>
     <path id="mf02d4f9c85" d="M 0 4.472136 
C 1.186024 4.472136 2.323632 4.000923 3.162278 3.162278 
C 4.000923 2.323632 4.472136 1.186024 4.472136 0 
C 4.472136 -1.186024 4.000923 -2.323632 3.162278 -3.162278 
C 2.323632 -4.000923 1.186024 -4.472136 0 -4.472136 
C -1.186024 -4.472136 -2.323632 -4.000923 -3.162278 -3.162278 
C -4.000923 -2.323632 -4.472136 -1.186024 -4.472136 0 
C -4.472136 1.186024 -4.000923 2.323632 -3.162278 3.162278 
C -2.323632 4.000923 -1.186024 4.472136 0 4.472136 
z
" style="stroke: #5c38fd"/>
    </defs>
    <g clip-path="url(#p892686bd27)">
     <use xlink:href="#mf02d4f9c85" x="372.84226" y="91.382469" style="fill: #5c38fd; stroke: #5c38fd"/>
    </g>
   </g>
   <g id="PathCollection_3">
    <defs>
     <path id="md49a210515" d="M 0 4.472136 
C 1.186024 4.472136 2.323632 4.000923 3.162278 3.162278 
C 4.000923 2.323632 4.472136 1.186024 4.472136 0 
C 4.472136 -1.186024 4.000923 -2.323632 3.162278 -3.162278 
C 2.323632 -4.000923 1.186024 -4.472136 0 -4.472136 
C -1.186024 -4.472136 -2.323632 -4.000923 -3.162278 -3.162278 
C -4.000923 -2.323632 -4.472136 -1.186024 -4.472136 0 
C -4.472136 1.186024 -4.000923 2.323632 -3.162278 3.162278 
C -2.323632 4.000923 -1.186024 4.472136 0 4.472136 
z
" style="stroke: #4a53fb"/>
    </defs>
    <g clip-path="url(#p892686bd27)">
     <use xlink:href="#md49a210515" x="371.299647" y="111.045661" style="fill: #4a53fb; stroke: #4a53fb"/>
    </g>
   </g>
   <g id="PathCollection_4">
    <defs>
     <path id="mf7f1e7b4cf" d="M 0 4.472136 
C 1.186024 4.472136 2.323632 4.000923 3.162278 3.162278 
C 4.000923 2.323632 4.472136 1.186024 4.472136 0 
C 4.472136 -1.186024 4.000923 -2.323632 3.162278 -3.162278 
C 2.323632 -4.000923 1.186024 -4.472136 0 -4.472136 
C -1.186024 -4.472136 -2.323632 -4.000923 -3.162278 -3.162278 
C -4.000923 -2.323632 -4.472136 -1.186024 -4.472136 0 
C -4.472136 1.186024 -4.000923 2.323632 -3.162278 3.162278 
C -2.323632 4.000923 -1.186024 4.472136 0 4.472136 
z
" style="stroke: #386df9"/>
    </defs>
    <g clip-path="url(#p892686bd27)">
     <use xlink:href="#mf7f1e7b4cf" x="336.821923" y="230.027947" style="fill: #386df9; stroke: #386df9"/>
    </g>
   </g>
   <g id="PathCollection_5">
    <defs>
     <path id="m5f046e8260" d="M 0 4.472136 
C 1.186024 4.472136 2.323632 4.000923 3.162278 3.162278 
C 4.000923 2.323632 4.472136 1.186024 4.472136 0 
C 4.472136 -1.186024 4.000923 -2.323632 3.162278 -3.162278 
C 2.323632 -4.000923 1.186024 -4.472136 0 -4.472136 
C -1.186024 -4.472136 -2.323632 -4.000923 -3.162278 -3.162278 
C -4.000923 -2.323632 -4.472136 -1.186024 -4.472136 0 
C -4.472136 1.186024 -4.000923 2.323632 -3.162278 3.162278 
C -2.323632 4.000923 -1.186024 4.472136 0 4.472136 
z
" style="stroke: #2686f5"/>
    </defs>
    <g clip-path="url(#p892686bd27)">
     <use xlink:href="#m5f046e8260" x="322.844805" y="253.136253" style="fill: #2686f5; stroke: #2686f5"/>
    </g>
   </g>
   <g id="PathCollection_6">
    <defs>
     <path id="m5f828948d9" d="M 0 4.472136 
C 1.186024 4.472136 2.323632 4.000923 3.162278 3.162278 
C 4.000923 2.323632 4.472136 1.186024 4.472136 0 
C 4.472136 -1.186024 4.000923 -2.323632 3.162278 -3.162278 
C 2.323632 -4.000923 1.186024 -4.472136 0 -4.472136 
C -1.186024 -4.472136 -2.323632 -4.000923 -3.162278 -3.162278 
C -4.000923 -2.323632 -4.472136 -1.186024 -4.472136 0 
C -4.472136 1.186024 -4.000923 2.323632 -3.162278 3.162278 
C -2.323632 4.000923 -1.186024 4.472136 0 4.472136 
z
" style="stroke: #149df1"/>
    </defs>
    <g clip-path="url(#p892686bd27)">
     <use xlink:href="#m5f828948d9" x="312.74536" y="266.963107" style="fill: #149df1; stroke: #149df1"/>
    </g>
   </g>
   <g id="PathCollection_7">
    <defs>
     <path id="m3ce7f2e40c" d="M 0 4.472136 
C 1.186024 4.472136 2.323632 4.000923 3.162278 3.162278 
C 4.000923 2.323632 4.472136 1.186024 4.472136 0 
C 4.472136 -1.186024 4.000923 -2.323632 3.162278 -3.162278 
C 2.323632 -4.000923 1.186024 -4.472136 0 -4.472136 
C -1.186024 -4.472136 -2.323632 -4.000923 -3.162278 -3.162278 
C -4.000923 -2.323632 -4.472136 -1.186024 -4.472136 0 
C -4.472136 1.186024 -4.000923 2.323632 -3.162278 3.162278 
C -2.323632 4.000923 -1.186024 4.472136 0 4.472136 
z
" style="stroke: #00b5eb"/>
    </defs>
    <g clip-path="url(#p892686bd27)">
     <use xlink:href="#m3ce7f2e40c" x="299.412706" y="282.579433" style="fill: #00b5eb; stroke: #00b5eb"/>
    </g>
   </g>
   <g id="PathCollection_8">
    <defs>
     <path id="meb320fa242" d="M 0 4.472136 
C 1.186024 4.472136 2.323632 4.000923 3.162278 3.162278 
C 4.000923 2.323632 4.472136 1.186024 4.472136 0 
C 4.472136 -1.186024 4.000923 -2.323632 3.162278 -3.162278 
C 2.323632 -4.000923 1.186024 -4.472136 0 -4.472136 
C -1.186024 -4.472136 -2.323632 -4.000923 -3.162278 -3.162278 
C -4.000923 -2.323632 -4.472136 -1.186024 -4.472136 0 
C -4.472136 1.186024 -4.000923 2.323632 -3.162278 3.162278 
C -2.323632 4.000923 -1.186024 4.472136 0 4.472136 
z
" style="stroke: #12c8e6"/>
    </defs>
    <g clip-path="url(#p892686bd27)">
     <use xlink:href="#meb320fa242" x="291.10251" y="291.106661" style="fill: #12c8e6; stroke: #12c8e6"/>
    </g>
   </g>
   <g id="PathCollection_9">
    <defs>
     <path id="m5cc6aee720" d="M 0 4.472136 
C 1.186024 4.472136 2.323632 4.000923 3.162278 3.162278 
C 4.000923 2.323632 4.472136 1.186024 4.472136 0 
C 4.472136 -1.186024 4.000923 -2.323632 3.162278 -3.162278 
C 2.323632 -4.000923 1.186024 -4.472136 0 -4.472136 
C -1.186024 -4.472136 -2.323632 -4.000923 -3.162278 -3.162278 
C -4.000923 -2.323632 -4.472136 -1.186024 -4.472136 0 
C -4.472136 1.186024 -4.000923 2.323632 -3.162278 3.162278 
C -2.323632 4.000923 -1.186024 4.472136 0 4.472136 
z
" style="stroke: #24d8df"/>
    </defs>
    <g clip-path="url(#p892686bd27)">
     <use xlink:href="#m5cc6aee720" x="286.434127" y="295.552751" style="fill: #24d8df; stroke: #24d8df"/>
    </g>
   </g>
   <g id="PathCollection_10">
    <defs>
     <path id="m140832e0ed" d="M 0 4.472136 
C 1.186024 4.472136 2.323632 4.000923 3.162278 3.162278 
C 4.000923 2.323632 4.472136 1.186024 4.472136 0 
C 4.472136 -1.186024 4.000923 -2.323632 3.162278 -3.162278 
C 2.323632 -4.000923 1.186024 -4.472136 0 -4.472136 
C -1.186024 -4.472136 -2.323632 -4.000923 -3.162278 -3.162278 
C -4.000923 -2.323632 -4.472136 -1.186024 -4.472136 0 
C -4.472136 1.186024 -4.000923 2.323632 -3.162278 3.162278 
C -2.323632 4.000923 -1.186024 4.472136 0 4.472136 
z
" style="stroke: #37e6d8"/>
    </defs>
    <g clip-path="url(#p892686bd27)">
     <use xlink:href="#m140832e0ed" x="285.207713" y="296.682875" style="fill: #37e6d8; stroke: #37e6d8"/>
    </g>
   </g>
   <g id="PathCollection_11">
    <defs>
     <path id="m6c6c4357fc" d="M 0 4.472136 
C 1.186024 4.472136 2.323632 4.000923 3.162278 3.162278 
C 4.000923 2.323632 4.472136 1.186024 4.472136 0 
C 4.472136 -1.186024 4.000923 -2.323632 3.162278 -3.162278 
C 2.323632 -4.000923 1.186024 -4.472136 0 -4.472136 
C -1.186024 -4.472136 -2.323632 -4.000923 -3.162278 -3.162278 
C -4.000923 -2.323632 -4.472136 -1.186024 -4.472136 0 
C -4.472136 1.186024 -4.000923 2.323632 -3.162278 3.162278 
C -2.323632 4.000923 -1.186024 4.472136 0 4.472136 
z
" style="stroke: #48f1d0"/>
    </defs>
    <g clip-path="url(#p892686bd27)">
     <use xlink:href="#m6c6c4357fc" x="283.954416" y="297.822091" style="fill: #48f1d0; stroke: #48f1d0"/>
    </g>
   </g>
   <g id="PathCollection_12">
    <defs>
     <path id="ma6f9d09eb4" d="M 0 4.472136 
C 1.186024 4.472136 2.323632 4.000923 3.162278 3.162278 
C 4.000923 2.323632 4.472136 1.186024 4.472136 0 
C 4.472136 -1.186024 4.000923 -2.323632 3.162278 -3.162278 
C 2.323632 -4.000923 1.186024 -4.472136 0 -4.472136 
C -1.186024 -4.472136 -2.323632 -4.000923 -3.162278 -3.162278 
C -4.000923 -2.323632 -4.472136 -1.186024 -4.472136 0 
C -4.472136 1.186024 -4.000923 2.323632 -3.162278 3.162278 
C -2.323632 4.000923 -1.186024 4.472136 0 4.472136 
z
" style="stroke: #5af8c8"/>
    </defs>
    <g clip-path="url(#p892686bd27)">
     <use xlink:href="#ma6f9d09eb4" x="283.639811" y="298.105607" style="fill: #5af8c8; stroke: #5af8c8"/>
    </g>
   </g>
   <g id="PathCollection_13">
    <defs>
     <path id="ma88b803e93" d="M 0 4.472136 
C 1.186024 4.472136 2.323632 4.000923 3.162278 3.162278 
C 4.000923 2.323632 4.472136 1.186024 4.472136 0 
C 4.472136 -1.186024 4.000923 -2.323632 3.162278 -3.162278 
C 2.323632 -4.000923 1.186024 -4.472136 0 -4.472136 
C -1.186024 -4.472136 -2.323632 -4.000923 -3.162278 -3.162278 
C -4.000923 -2.323632 -4.472136 -1.186024 -4.472136 0 
C -4.472136 1.186024 -4.000923 2.323632 -3.162278 3.162278 
C -2.323632 4.000923 -1.186024 4.472136 0 4.472136 
z
" style="stroke: #6dfdbf"/>
    </defs>
    <g clip-path="url(#p892686bd27)">
     <use xlink:href="#ma88b803e93" x="283.478638" y="298.250474" style="fill: #6dfdbf; stroke: #6dfdbf"/>
    </g>
   </g>
   <g id="PathCollection_14">
    <defs>
     <path id="m1cdbeeb4a4" d="M 0 4.472136 
C 1.186024 4.472136 2.323632 4.000923 3.162278 3.162278 
C 4.000923 2.323632 4.472136 1.186024 4.472136 0 
C 4.472136 -1.186024 4.000923 -2.323632 3.162278 -3.162278 
C 2.323632 -4.000923 1.186024 -4.472136 0 -4.472136 
C -1.186024 -4.472136 -2.323632 -4.000923 -3.162278 -3.162278 
C -4.000923 -2.323632 -4.472136 -1.186024 -4.472136 0 
C -4.472136 1.186024 -4.000923 2.323632 -3.162278 3.162278 
C -2.323632 4.000923 -1.186024 4.472136 0 4.472136 
z
" style="stroke: #80ffb4"/>
    </defs>
    <g clip-path="url(#p892686bd27)">
     <use xlink:href="#m1cdbeeb4a4" x="283.319001" y="298.39371" style="fill: #80ffb4; stroke: #80ffb4"/>
    </g>
   </g>
   <g id="PathCollection_15">
    <defs>
     <path id="m1d203b181f" d="M 0 4.472136 
C 1.186024 4.472136 2.323632 4.000923 3.162278 3.162278 
C 4.000923 2.323632 4.472136 1.186024 4.472136 0 
C 4.472136 -1.186024 4.000923 -2.323632 3.162278 -3.162278 
C 2.323632 -4.000923 1.186024 -4.472136 0 -4.472136 
C -1.186024 -4.472136 -2.323632 -4.000923 -3.162278 -3.162278 
C -4.000923 -2.323632 -4.472136 -1.186024 -4.472136 0 
C -4.472136 1.186024 -4.000923 2.323632 -3.162278 3.162278 
C -2.323632 4.000923 -1.186024 4.472136 0 4.472136 
z
" style="stroke: #92fda9"/>
    </defs>
    <g clip-path="url(#p892686bd27)">
     <use xlink:href="#m1d203b181f" x="283.158177" y="298.537758" style="fill: #92fda9; stroke: #92fda9"/>
    </g>
   </g>
   <g id="PathCollection_16">
    <defs>
     <path id="mf21aa641c8" d="M 0 4.472136 
C 1.186024 4.472136 2.323632 4.000923 3.162278 3.162278 
C 4.000923 2.323632 4.472136 1.186024 4.472136 0 
C 4.472136 -1.186024 4.000923 -2.323632 3.162278 -3.162278 
C 2.323632 -4.000923 1.186024 -4.472136 0 -4.472136 
C -1.186024 -4.472136 -2.323632 -4.000923 -3.162278 -3.162278 
C -4.000923 -2.323632 -4.472136 -1.186024 -4.472136 0 
C -4.472136 1.186024 -4.000923 2.323632 -3.162278 3.162278 
C -2.323632 4.000923 -1.186024 4.472136 0 4.472136 
z
" style="stroke: #a4f89f"/>
    </defs>
    <g clip-path="url(#p892686bd27)">
     <use xlink:href="#mf21aa641c8" x="282.996811" y="298.682037" style="fill: #a4f89f; stroke: #a4f89f"/>
    </g>
   </g>
   <g id="PathCollection_17">
    <defs>
     <path id="m6ba8abdd70" d="M 0 4.472136 
C 1.186024 4.472136 2.323632 4.000923 3.162278 3.162278 
C 4.000923 2.323632 4.472136 1.186024 4.472136 0 
C 4.472136 -1.186024 4.000923 -2.323632 3.162278 -3.162278 
C 2.323632 -4.000923 1.186024 -4.472136 0 -4.472136 
C -1.186024 -4.472136 -2.323632 -4.000923 -3.162278 -3.162278 
C -4.000923 -2.323632 -4.472136 -1.186024 -4.472136 0 
C -4.472136 1.186024 -4.000923 2.323632 -3.162278 3.162278 
C -2.323632 4.000923 -1.186024 4.472136 0 4.472136 
z
" style="stroke: #b6f193"/>
    </defs>
    <g clip-path="url(#p892686bd27)">
     <use xlink:href="#m6ba8abdd70" x="282.678972" y="298.965482" style="fill: #b6f193; stroke: #b6f193"/>
    </g>
   </g>
   <g id="PathCollection_18">
    <defs>
     <path id="m24a61324e9" d="M 0 4.472136 
C 1.186024 4.472136 2.323632 4.000923 3.162278 3.162278 
C 4.000923 2.323632 4.472136 1.186024 4.472136 0 
C 4.472136 -1.186024 4.000923 -2.323632 3.162278 -3.162278 
C 2.323632 -4.000923 1.186024 -4.472136 0 -4.472136 
C -1.186024 -4.472136 -2.323632 -4.000923 -3.162278 -3.162278 
C -4.000923 -2.323632 -4.472136 -1.186024 -4.472136 0 
C -4.472136 1.186024 -4.000923 2.323632 -3.162278 3.162278 
C -2.323632 4.000923 -1.186024 4.472136 0 4.472136 
z
" style="stroke: #c8e688"/>
    </defs>
    <g clip-path="url(#p892686bd27)">
     <use xlink:href="#m24a61324e9" x="282.03032" y="299.540899" style="fill: #c8e688; stroke: #c8e688"/>
    </g>
   </g>
   <g id="PathCollection_19">
    <defs>
     <path id="m5e96dd5cc4" d="M 0 4.472136 
C 1.186024 4.472136 2.323632 4.000923 3.162278 3.162278 
C 4.000923 2.323632 4.472136 1.186024 4.472136 0 
C 4.472136 -1.186024 4.000923 -2.323632 3.162278 -3.162278 
C 2.323632 -4.000923 1.186024 -4.472136 0 -4.472136 
C -1.186024 -4.472136 -2.323632 -4.000923 -3.162278 -3.162278 
C -4.000923 -2.323632 -4.472136 -1.186024 -4.472136 0 
C -4.472136 1.186024 -4.000923 2.323632 -3.162278 3.162278 
C -2.323632 4.000923 -1.186024 4.472136 0 4.472136 
z
" style="stroke: #dbd87b"/>
    </defs>
    <g clip-path="url(#p892686bd27)">
     <use xlink:href="#m5e96dd5cc4" x="281.375505" y="300.117682" style="fill: #dbd87b; stroke: #dbd87b"/>
    </g>
   </g>
   <g id="PathCollection_20">
    <defs>
     <path id="m64de899233" d="M 0 4.472136 
C 1.186024 4.472136 2.323632 4.000923 3.162278 3.162278 
C 4.000923 2.323632 4.472136 1.186024 4.472136 0 
C 4.472136 -1.186024 4.000923 -2.323632 3.162278 -3.162278 
C 2.323632 -4.000923 1.186024 -4.472136 0 -4.472136 
C -1.186024 -4.472136 -2.323632 -4.000923 -3.162278 -3.162278 
C -4.000923 -2.323632 -4.472136 -1.186024 -4.472136 0 
C -4.472136 1.186024 -4.000923 2.323632 -3.162278 3.162278 
C -2.323632 4.000923 -1.186024 4.472136 0 4.472136 
z
" style="stroke: #ecc86f"/>
    </defs>
    <g clip-path="url(#p892686bd27)">
     <use xlink:href="#m64de899233" x="278.685672" y="302.444586" style="fill: #ecc86f; stroke: #ecc86f"/>
    </g>
   </g>
   <g id="PathCollection_21">
    <defs>
     <path id="m3b8aa62928" d="M 0 4.472136 
C 1.186024 4.472136 2.323632 4.000923 3.162278 3.162278 
C 4.000923 2.323632 4.472136 1.186024 4.472136 0 
C 4.472136 -1.186024 4.000923 -2.323632 3.162278 -3.162278 
C 2.323632 -4.000923 1.186024 -4.472136 0 -4.472136 
C -1.186024 -4.472136 -2.323632 -4.000923 -3.162278 -3.162278 
C -4.000923 -2.323632 -4.472136 -1.186024 -4.472136 0 
C -4.472136 1.186024 -4.000923 2.323632 -3.162278 3.162278 
C -2.323632 4.000923 -1.186024 4.472136 0 4.472136 
z
" style="stroke: #ffb360"/>
    </defs>
    <g clip-path="url(#p892686bd27)">
     <use xlink:href="#m3b8aa62928" x="275.881869" y="304.799641" style="fill: #ffb360; stroke: #ffb360"/>
    </g>
   </g>
   <g id="PathCollection_22">
    <defs>
     <path id="mf87cce53d3" d="M 0 4.472136 
C 1.186024 4.472136 2.323632 4.000923 3.162278 3.162278 
C 4.000923 2.323632 4.472136 1.186024 4.472136 0 
C 4.472136 -1.186024 4.000923 -2.323632 3.162278 -3.162278 
C 2.323632 -4.000923 1.186024 -4.472136 0 -4.472136 
C -1.186024 -4.472136 -2.323632 -4.000923 -3.162278 -3.162278 
C -4.000923 -2.323632 -4.472136 -1.186024 -4.472136 0 
C -4.472136 1.186024 -4.000923 2.323632 -3.162278 3.162278 
C -2.323632 4.000923 -1.186024 4.472136 0 4.472136 
z
" style="stroke: #ff9d53"/>
    </defs>
    <g clip-path="url(#p892686bd27)">
     <use xlink:href="#mf87cce53d3" x="269.901482" y="309.595112" style="fill: #ff9d53; stroke: #ff9d53"/>
    </g>
   </g>
   <g id="PathCollection_23">
    <defs>
     <path id="m3323741a99" d="M 0 4.472136 
C 1.186024 4.472136 2.323632 4.000923 3.162278 3.162278 
C 4.000923 2.323632 4.472136 1.186024 4.472136 0 
C 4.472136 -1.186024 4.000923 -2.323632 3.162278 -3.162278 
C 2.323632 -4.000923 1.186024 -4.472136 0 -4.472136 
C -1.186024 -4.472136 -2.323632 -4.000923 -3.162278 -3.162278 
C -4.000923 -2.323632 -4.472136 -1.186024 -4.472136 0 
C -4.472136 1.186024 -4.000923 2.323632 -3.162278 3.162278 
C -2.323632 4.000923 -1.186024 4.472136 0 4.472136 
z
" style="stroke: #ff8646"/>
    </defs>
    <g clip-path="url(#p892686bd27)">
     <use xlink:href="#m3323741a99" x="256.251731" y="319.485533" style="fill: #ff8646; stroke: #ff8646"/>
    </g>
   </g>
   <g id="PathCollection_24">
    <defs>
     <path id="m64b03df305" d="M 0 4.472136 
C 1.186024 4.472136 2.323632 4.000923 3.162278 3.162278 
C 4.000923 2.323632 4.472136 1.186024 4.472136 0 
C 4.472136 -1.186024 4.000923 -2.323632 3.162278 -3.162278 
C 2.323632 -4.000923 1.186024 -4.472136 0 -4.472136 
C -1.186024 -4.472136 -2.323632 -4.000923 -3.162278 -3.162278 
C -4.000923 -2.323632 -4.472136 -1.186024 -4.472136 0 
C -4.472136 1.186024 -4.000923 2.323632 -3.162278 3.162278 
C -2.323632 4.000923 -1.186024 4.472136 0 4.472136 
z
" style="stroke: #ff6d38"/>
    </defs>
    <g clip-path="url(#p892686bd27)">
     <use xlink:href="#m64b03df305" x="163.87545" y="359.30747" style="fill: #ff6d38; stroke: #ff6d38"/>
    </g>
   </g>
   <g id="PathCollection_25">
    <defs>
     <path id="m22f8f9908b" d="M 0 4.472136 
C 1.186024 4.472136 2.323632 4.000923 3.162278 3.162278 
C 4.000923 2.323632 4.472136 1.186024 4.472136 0 
C 4.472136 -1.186024 4.000923 -2.323632 3.162278 -3.162278 
C 2.323632 -4.000923 1.186024 -4.472136 0 -4.472136 
C -1.186024 -4.472136 -2.323632 -4.000923 -3.162278 -3.162278 
C -4.000923 -2.323632 -4.472136 -1.186024 -4.472136 0 
C -4.472136 1.186024 -4.000923 2.323632 -3.162278 3.162278 
C -2.323632 4.000923 -1.186024 4.472136 0 4.472136 
z
" style="stroke: #ff532a"/>
    </defs>
    <g clip-path="url(#p892686bd27)">
     <use xlink:href="#m22f8f9908b" x="84.55465" y="369.155381" style="fill: #ff532a; stroke: #ff532a"/>
    </g>
   </g>
   <g id="PathCollection_26">
    <defs>
     <path id="m63109c411b" d="M 0 4.472136 
C 1.186024 4.472136 2.323632 4.000923 3.162278 3.162278 
C 4.000923 2.323632 4.472136 1.186024 4.472136 0 
C 4.472136 -1.186024 4.000923 -2.323632 3.162278 -3.162278 
C 2.323632 -4.000923 1.186024 -4.472136 0 -4.472136 
C -1.186024 -4.472136 -2.323632 -4.000923 -3.162278 -3.162278 
C -4.000923 -2.323632 -4.472136 -1.186024 -4.472136 0 
C -4.472136 1.186024 -4.000923 2.323632 -3.162278 3.162278 
C -2.323632 4.000923 -1.186024 4.472136 0 4.472136 
z
" style="stroke: #ff381c"/>
    </defs>
    <g clip-path="url(#p892686bd27)">
     <use xlink:href="#m63109c411b" x="70.921651" y="369.357079" style="fill: #ff381c; stroke: #ff381c"/>
    </g>
   </g>
   <g id="PathCollection_27">
    <defs>
     <path id="m8c51a9662a" d="M 0 4.472136 
C 1.186024 4.472136 2.323632 4.000923 3.162278 3.162278 
C 4.000923 2.323632 4.472136 1.186024 4.472136 0 
C 4.472136 -1.186024 4.000923 -2.323632 3.162278 -3.162278 
C 2.323632 -4.000923 1.186024 -4.472136 0 -4.472136 
C -1.186024 -4.472136 -2.323632 -4.000923 -3.162278 -3.162278 
C -4.000923 -2.323632 -4.472136 -1.186024 -4.472136 0 
C -4.472136 1.186024 -4.000923 2.323632 -3.162278 3.162278 
C -2.323632 4.000923 -1.186024 4.472136 0 4.472136 
z
" style="stroke: #ff1c0e"/>
    </defs>
    <g clip-path="url(#p892686bd27)">
     <use xlink:href="#m8c51a9662a" x="69.273092" y="369.359746" style="fill: #ff1c0e; stroke: #ff1c0e"/>
    </g>
   </g>
   <g id="PathCollection_28">
    <defs>
     <path id="mca3723faaa" d="M 0 4.472136 
C 1.186024 4.472136 2.323632 4.000923 3.162278 3.162278 
C 4.000923 2.323632 4.472136 1.186024 4.472136 0 
C 4.472136 -1.186024 4.000923 -2.323632 3.162278 -3.162278 
C 2.323632 -4.000923 1.186024 -4.472136 0 -4.472136 
C -1.186024 -4.472136 -2.323632 -4.000923 -3.162278 -3.162278 
C -4.000923 -2.323632 -4.472136 -1.186024 -4.472136 0 
C -4.472136 1.186024 -4.000923 2.323632 -3.162278 3.162278 
C -2.323632 4.000923 -1.186024 4.472136 0 4.472136 
z
" style="stroke: #ff0000"/>
    </defs>
    <g clip-path="url(#p892686bd27)">
     <use xlink:href="#mca3723faaa" x="69.218182" y="369.36" style="fill: #ff0000; stroke: #ff0000"/>
    </g>
   </g>
   <g id="PathCollection_29">
    <path d="M 283.158177 303.537758 
C 284.484192 303.537758 285.756076 303.010927 286.69371 302.073292 
C 287.631345 301.135658 288.158177 299.863774 288.158177 298.537758 
C 288.158177 297.211743 287.631345 295.939859 286.69371 295.002224 
C 285.756076 294.06459 284.484192 293.537758 283.158177 293.537758 
C 281.832161 293.537758 280.560277 294.06459 279.622643 295.002224 
C 278.685008 295.939859 278.158177 297.211743 278.158177 298.537758 
C 278.158177 299.863774 278.685008 301.135658 279.622643 302.073292 
C 280.560277 303.010927 281.832161 303.537758 283.158177 303.537758 
L 283.158177 303.537758 
z
" clip-path="url(#p892686bd27)" style="fill: none; stroke: #000000; stroke-width: 3"/>
   </g>
   <g id="matplotlib.axis_1">
    <g id="xtick_1">
     <g id="line2d_1">
      <defs>
       <path id="m5be7e7d0f8" d="M 0 0 
L 0 3.5 
" style="stroke: #000000; stroke-width: 0.8"/>
      </defs>
      <g>
       <use xlink:href="#m5be7e7d0f8" x="83.328395" y="384.48" style="stroke: #000000; stroke-width: 0.8"/>
      </g>
     </g>
     <g id="text_1">
      <!-- 0.65 -->
      <g transform="translate(72.195583 399.078438)scale(0.1 -0.1)">
       <defs>
        <path id="DejaVuSans-30" d="M 2034 4250 
Q 1547 4250 1301 3770 
Q 1056 3291 1056 2328 
Q 1056 1369 1301 889 
Q 1547 409 2034 409 
Q 2525 409 2770 889 
Q 3016 1369 3016 2328 
Q 3016 3291 2770 3770 
Q 2525 4250 2034 4250 
z
M 2034 4750 
Q 2819 4750 3233 4129 
Q 3647 3509 3647 2328 
Q 3647 1150 3233 529 
Q 2819 -91 2034 -91 
Q 1250 -91 836 529 
Q 422 1150 422 2328 
Q 422 3509 836 4129 
Q 1250 4750 2034 4750 
z
" transform="scale(0.015625)"/>
        <path id="DejaVuSans-2e" d="M 684 794 
L 1344 794 
L 1344 0 
L 684 0 
L 684 794 
z
" transform="scale(0.015625)"/>
        <path id="DejaVuSans-36" d="M 2113 2584 
Q 1688 2584 1439 2293 
Q 1191 2003 1191 1497 
Q 1191 994 1439 701 
Q 1688 409 2113 409 
Q 2538 409 2786 701 
Q 3034 994 3034 1497 
Q 3034 2003 2786 2293 
Q 2538 2584 2113 2584 
z
M 3366 4563 
L 3366 3988 
Q 3128 4100 2886 4159 
Q 2644 4219 2406 4219 
Q 1781 4219 1451 3797 
Q 1122 3375 1075 2522 
Q 1259 2794 1537 2939 
Q 1816 3084 2150 3084 
Q 2853 3084 3261 2657 
Q 3669 2231 3669 1497 
Q 3669 778 3244 343 
Q 2819 -91 2113 -91 
Q 1303 -91 875 529 
Q 447 1150 447 2328 
Q 447 3434 972 4092 
Q 1497 4750 2381 4750 
Q 2619 4750 2861 4703 
Q 3103 4656 3366 4563 
z
" transform="scale(0.015625)"/>
        <path id="DejaVuSans-35" d="M 691 4666 
L 3169 4666 
L 3169 4134 
L 1269 4134 
L 1269 2991 
Q 1406 3038 1543 3061 
Q 1681 3084 1819 3084 
Q 2600 3084 3056 2656 
Q 3513 2228 3513 1497 
Q 3513 744 3044 326 
Q 2575 -91 1722 -91 
Q 1428 -91 1123 -41 
Q 819 9 494 109 
L 494 744 
Q 775 591 1075 516 
Q 1375 441 1709 441 
Q 2250 441 2565 725 
Q 2881 1009 2881 1497 
Q 2881 1984 2565 2268 
Q 2250 2553 1709 2553 
Q 1456 2553 1204 2497 
Q 953 2441 691 2322 
L 691 4666 
z
" transform="scale(0.015625)"/>
       </defs>
       <use xlink:href="#DejaVuSans-30"/>
       <use xlink:href="#DejaVuSans-2e" x="63.623047"/>
       <use xlink:href="#DejaVuSans-36" x="95.410156"/>
       <use xlink:href="#DejaVuSans-35" x="159.033203"/>
      </g>
     </g>
    </g>
    <g id="xtick_2">
     <g id="line2d_2">
      <g>
       <use xlink:href="#m5be7e7d0f8" x="124.794336" y="384.48" style="stroke: #000000; stroke-width: 0.8"/>
      </g>
     </g>
     <g id="text_2">
      <!-- 0.70 -->
      <g transform="translate(113.661524 399.078438)scale(0.1 -0.1)">
       <defs>
        <path id="DejaVuSans-37" d="M 525 4666 
L 3525 4666 
L 3525 4397 
L 1831 0 
L 1172 0 
L 2766 4134 
L 525 4134 
L 525 4666 
z
" transform="scale(0.015625)"/>
       </defs>
       <use xlink:href="#DejaVuSans-30"/>
       <use xlink:href="#DejaVuSans-2e" x="63.623047"/>
       <use xlink:href="#DejaVuSans-37" x="95.410156"/>
       <use xlink:href="#DejaVuSans-30" x="159.033203"/>
      </g>
     </g>
    </g>
    <g id="xtick_3">
     <g id="line2d_3">
      <g>
       <use xlink:href="#m5be7e7d0f8" x="166.260277" y="384.48" style="stroke: #000000; stroke-width: 0.8"/>
      </g>
     </g>
     <g id="text_3">
      <!-- 0.75 -->
      <g transform="translate(155.127465 399.078438)scale(0.1 -0.1)">
       <use xlink:href="#DejaVuSans-30"/>
       <use xlink:href="#DejaVuSans-2e" x="63.623047"/>
       <use xlink:href="#DejaVuSans-37" x="95.410156"/>
       <use xlink:href="#DejaVuSans-35" x="159.033203"/>
      </g>
     </g>
    </g>
    <g id="xtick_4">
     <g id="line2d_4">
      <g>
       <use xlink:href="#m5be7e7d0f8" x="207.726218" y="384.48" style="stroke: #000000; stroke-width: 0.8"/>
      </g>
     </g>
     <g id="text_4">
      <!-- 0.80 -->
      <g transform="translate(196.593405 399.078438)scale(0.1 -0.1)">
       <defs>
        <path id="DejaVuSans-38" d="M 2034 2216 
Q 1584 2216 1326 1975 
Q 1069 1734 1069 1313 
Q 1069 891 1326 650 
Q 1584 409 2034 409 
Q 2484 409 2743 651 
Q 3003 894 3003 1313 
Q 3003 1734 2745 1975 
Q 2488 2216 2034 2216 
z
M 1403 2484 
Q 997 2584 770 2862 
Q 544 3141 544 3541 
Q 544 4100 942 4425 
Q 1341 4750 2034 4750 
Q 2731 4750 3128 4425 
Q 3525 4100 3525 3541 
Q 3525 3141 3298 2862 
Q 3072 2584 2669 2484 
Q 3125 2378 3379 2068 
Q 3634 1759 3634 1313 
Q 3634 634 3220 271 
Q 2806 -91 2034 -91 
Q 1263 -91 848 271 
Q 434 634 434 1313 
Q 434 1759 690 2068 
Q 947 2378 1403 2484 
z
M 1172 3481 
Q 1172 3119 1398 2916 
Q 1625 2713 2034 2713 
Q 2441 2713 2670 2916 
Q 2900 3119 2900 3481 
Q 2900 3844 2670 4047 
Q 2441 4250 2034 4250 
Q 1625 4250 1398 4047 
Q 1172 3844 1172 3481 
z
" transform="scale(0.015625)"/>
       </defs>
       <use xlink:href="#DejaVuSans-30"/>
       <use xlink:href="#DejaVuSans-2e" x="63.623047"/>
       <use xlink:href="#DejaVuSans-38" x="95.410156"/>
       <use xlink:href="#DejaVuSans-30" x="159.033203"/>
      </g>
     </g>
    </g>
    <g id="xtick_5">
     <g id="line2d_5">
      <g>
       <use xlink:href="#m5be7e7d0f8" x="249.192159" y="384.48" style="stroke: #000000; stroke-width: 0.8"/>
      </g>
     </g>
     <g id="text_5">
      <!-- 0.85 -->
      <g transform="translate(238.059346 399.078438)scale(0.1 -0.1)">
       <use xlink:href="#DejaVuSans-30"/>
       <use xlink:href="#DejaVuSans-2e" x="63.623047"/>
       <use xlink:href="#DejaVuSans-38" x="95.410156"/>
       <use xlink:href="#DejaVuSans-35" x="159.033203"/>
      </g>
     </g>
    </g>
    <g id="xtick_6">
     <g id="line2d_6">
      <g>
       <use xlink:href="#m5be7e7d0f8" x="290.6581" y="384.48" style="stroke: #000000; stroke-width: 0.8"/>
      </g>
     </g>
     <g id="text_6">
      <!-- 0.90 -->
      <g transform="translate(279.525287 399.078438)scale(0.1 -0.1)">
       <defs>
        <path id="DejaVuSans-39" d="M 703 97 
L 703 672 
Q 941 559 1184 500 
Q 1428 441 1663 441 
Q 2288 441 2617 861 
Q 2947 1281 2994 2138 
Q 2813 1869 2534 1725 
Q 2256 1581 1919 1581 
Q 1219 1581 811 2004 
Q 403 2428 403 3163 
Q 403 3881 828 4315 
Q 1253 4750 1959 4750 
Q 2769 4750 3195 4129 
Q 3622 3509 3622 2328 
Q 3622 1225 3098 567 
Q 2575 -91 1691 -91 
Q 1453 -91 1209 -44 
Q 966 3 703 97 
z
M 1959 2075 
Q 2384 2075 2632 2365 
Q 2881 2656 2881 3163 
Q 2881 3666 2632 3958 
Q 2384 4250 1959 4250 
Q 1534 4250 1286 3958 
Q 1038 3666 1038 3163 
Q 1038 2656 1286 2365 
Q 1534 2075 1959 2075 
z
" transform="scale(0.015625)"/>
       </defs>
       <use xlink:href="#DejaVuSans-30"/>
       <use xlink:href="#DejaVuSans-2e" x="63.623047"/>
       <use xlink:href="#DejaVuSans-39" x="95.410156"/>
       <use xlink:href="#DejaVuSans-30" x="159.033203"/>
      </g>
     </g>
    </g>
    <g id="xtick_7">
     <g id="line2d_7">
      <g>
       <use xlink:href="#m5be7e7d0f8" x="332.12404" y="384.48" style="stroke: #000000; stroke-width: 0.8"/>
      </g>
     </g>
     <g id="text_7">
      <!-- 0.95 -->
      <g transform="translate(320.991228 399.078438)scale(0.1 -0.1)">
       <use xlink:href="#DejaVuSans-30"/>
       <use xlink:href="#DejaVuSans-2e" x="63.623047"/>
       <use xlink:href="#DejaVuSans-39" x="95.410156"/>
       <use xlink:href="#DejaVuSans-35" x="159.033203"/>
      </g>
     </g>
    </g>
    <g id="xtick_8">
     <g id="line2d_8">
      <g>
       <use xlink:href="#m5be7e7d0f8" x="373.589981" y="384.48" style="stroke: #000000; stroke-width: 0.8"/>
      </g>
     </g>
     <g id="text_8">
      <!-- 1.00 -->
      <g transform="translate(362.457169 399.078438)scale(0.1 -0.1)">
       <defs>
        <path id="DejaVuSans-31" d="M 794 531 
L 1825 531 
L 1825 4091 
L 703 3866 
L 703 4441 
L 1819 4666 
L 2450 4666 
L 2450 531 
L 3481 531 
L 3481 0 
L 794 0 
L 794 531 
z
" transform="scale(0.015625)"/>
       </defs>
       <use xlink:href="#DejaVuSans-31"/>
       <use xlink:href="#DejaVuSans-2e" x="63.623047"/>
       <use xlink:href="#DejaVuSans-30" x="95.410156"/>
       <use xlink:href="#DejaVuSans-30" x="159.033203"/>
      </g>
     </g>
    </g>
    <g id="text_9">
     <!-- Neff -->
     <g transform="translate(211.0625 412.756563)scale(0.1 -0.1)">
      <defs>
       <path id="DejaVuSans-4e" d="M 628 4666 
L 1478 4666 
L 3547 763 
L 3547 4666 
L 4159 4666 
L 4159 0 
L 3309 0 
L 1241 3903 
L 1241 0 
L 628 0 
L 628 4666 
z
" transform="scale(0.015625)"/>
       <path id="DejaVuSans-65" d="M 3597 1894 
L 3597 1613 
L 953 1613 
Q 991 1019 1311 708 
Q 1631 397 2203 397 
Q 2534 397 2845 478 
Q 3156 559 3463 722 
L 3463 178 
Q 3153 47 2828 -22 
Q 2503 -91 2169 -91 
Q 1331 -91 842 396 
Q 353 884 353 1716 
Q 353 2575 817 3079 
Q 1281 3584 2069 3584 
Q 2775 3584 3186 3129 
Q 3597 2675 3597 1894 
z
M 3022 2063 
Q 3016 2534 2758 2815 
Q 2500 3097 2075 3097 
Q 1594 3097 1305 2825 
Q 1016 2553 972 2059 
L 3022 2063 
z
" transform="scale(0.015625)"/>
       <path id="DejaVuSans-66" d="M 2375 4863 
L 2375 4384 
L 1825 4384 
Q 1516 4384 1395 4259 
Q 1275 4134 1275 3809 
L 1275 3500 
L 2222 3500 
L 2222 3053 
L 1275 3053 
L 1275 0 
L 697 0 
L 697 3053 
L 147 3053 
L 147 3500 
L 697 3500 
L 697 3744 
Q 697 4328 969 4595 
Q 1241 4863 1831 4863 
L 2375 4863 
z
" transform="scale(0.015625)"/>
      </defs>
      <use xlink:href="#DejaVuSans-4e"/>
      <use xlink:href="#DejaVuSans-65" x="74.804688"/>
      <use xlink:href="#DejaVuSans-66" x="136.328125"/>
      <use xlink:href="#DejaVuSans-66" x="171.533203"/>
     </g>
    </g>
   </g>
   <g id="matplotlib.axis_2">
    <g id="ytick_1">
     <g id="line2d_9">
      <defs>
       <path id="mcd6c5344d8" d="M 0 0 
L -3.5 0 
" style="stroke: #000000; stroke-width: 0.8"/>
      </defs>
      <g>
       <use xlink:href="#mcd6c5344d8" x="54" y="346.795599" style="stroke: #000000; stroke-width: 0.8"/>
      </g>
     </g>
     <g id="text_10">
      <!-- 0.65 -->
      <g transform="translate(24.734375 350.594818)scale(0.1 -0.1)">
       <use xlink:href="#DejaVuSans-30"/>
       <use xlink:href="#DejaVuSans-2e" x="63.623047"/>
       <use xlink:href="#DejaVuSans-36" x="95.410156"/>
       <use xlink:href="#DejaVuSans-35" x="159.033203"/>
      </g>
     </g>
    </g>
    <g id="ytick_2">
     <g id="line2d_10">
      <g>
       <use xlink:href="#mcd6c5344d8" x="54" y="281.841176" style="stroke: #000000; stroke-width: 0.8"/>
      </g>
     </g>
     <g id="text_11">
      <!-- 0.70 -->
      <g transform="translate(24.734375 285.640395)scale(0.1 -0.1)">
       <use xlink:href="#DejaVuSans-30"/>
       <use xlink:href="#DejaVuSans-2e" x="63.623047"/>
       <use xlink:href="#DejaVuSans-37" x="95.410156"/>
       <use xlink:href="#DejaVuSans-30" x="159.033203"/>
      </g>
     </g>
    </g>
    <g id="ytick_3">
     <g id="line2d_11">
      <g>
       <use xlink:href="#mcd6c5344d8" x="54" y="216.886753" style="stroke: #000000; stroke-width: 0.8"/>
      </g>
     </g>
     <g id="text_12">
      <!-- 0.75 -->
      <g transform="translate(24.734375 220.685972)scale(0.1 -0.1)">
       <use xlink:href="#DejaVuSans-30"/>
       <use xlink:href="#DejaVuSans-2e" x="63.623047"/>
       <use xlink:href="#DejaVuSans-37" x="95.410156"/>
       <use xlink:href="#DejaVuSans-35" x="159.033203"/>
      </g>
     </g>
    </g>
    <g id="ytick_4">
     <g id="line2d_12">
      <g>
       <use xlink:href="#mcd6c5344d8" x="54" y="151.93233" style="stroke: #000000; stroke-width: 0.8"/>
      </g>
     </g>
     <g id="text_13">
      <!-- 0.80 -->
      <g transform="translate(24.734375 155.731548)scale(0.1 -0.1)">
       <use xlink:href="#DejaVuSans-30"/>
       <use xlink:href="#DejaVuSans-2e" x="63.623047"/>
       <use xlink:href="#DejaVuSans-38" x="95.410156"/>
       <use xlink:href="#DejaVuSans-30" x="159.033203"/>
      </g>
     </g>
    </g>
    <g id="ytick_5">
     <g id="line2d_13">
      <g>
       <use xlink:href="#mcd6c5344d8" x="54" y="86.977907" style="stroke: #000000; stroke-width: 0.8"/>
      </g>
     </g>
     <g id="text_14">
      <!-- 0.85 -->
      <g transform="translate(24.734375 90.777125)scale(0.1 -0.1)">
       <use xlink:href="#DejaVuSans-30"/>
       <use xlink:href="#DejaVuSans-2e" x="63.623047"/>
       <use xlink:href="#DejaVuSans-38" x="95.410156"/>
       <use xlink:href="#DejaVuSans-35" x="159.033203"/>
      </g>
     </g>
    </g>
    <g id="text_15">
     <!-- Reduced Chi2 -->
     <g transform="translate(18.654687 252.648281)rotate(-90)scale(0.1 -0.1)">
      <defs>
       <path id="DejaVuSans-52" d="M 2841 2188 
Q 3044 2119 3236 1894 
Q 3428 1669 3622 1275 
L 4263 0 
L 3584 0 
L 2988 1197 
Q 2756 1666 2539 1819 
Q 2322 1972 1947 1972 
L 1259 1972 
L 1259 0 
L 628 0 
L 628 4666 
L 2053 4666 
Q 2853 4666 3247 4331 
Q 3641 3997 3641 3322 
Q 3641 2881 3436 2590 
Q 3231 2300 2841 2188 
z
M 1259 4147 
L 1259 2491 
L 2053 2491 
Q 2509 2491 2742 2702 
Q 2975 2913 2975 3322 
Q 2975 3731 2742 3939 
Q 2509 4147 2053 4147 
L 1259 4147 
z
" transform="scale(0.015625)"/>
       <path id="DejaVuSans-64" d="M 2906 2969 
L 2906 4863 
L 3481 4863 
L 3481 0 
L 2906 0 
L 2906 525 
Q 2725 213 2448 61 
Q 2172 -91 1784 -91 
Q 1150 -91 751 415 
Q 353 922 353 1747 
Q 353 2572 751 3078 
Q 1150 3584 1784 3584 
Q 2172 3584 2448 3432 
Q 2725 3281 2906 2969 
z
M 947 1747 
Q 947 1113 1208 752 
Q 1469 391 1925 391 
Q 2381 391 2643 752 
Q 2906 1113 2906 1747 
Q 2906 2381 2643 2742 
Q 2381 3103 1925 3103 
Q 1469 3103 1208 2742 
Q 947 2381 947 1747 
z
" transform="scale(0.015625)"/>
       <path id="DejaVuSans-75" d="M 544 1381 
L 544 3500 
L 1119 3500 
L 1119 1403 
Q 1119 906 1312 657 
Q 1506 409 1894 409 
Q 2359 409 2629 706 
Q 2900 1003 2900 1516 
L 2900 3500 
L 3475 3500 
L 3475 0 
L 2900 0 
L 2900 538 
Q 2691 219 2414 64 
Q 2138 -91 1772 -91 
Q 1169 -91 856 284 
Q 544 659 544 1381 
z
M 1991 3584 
L 1991 3584 
z
" transform="scale(0.015625)"/>
       <path id="DejaVuSans-63" d="M 3122 3366 
L 3122 2828 
Q 2878 2963 2633 3030 
Q 2388 3097 2138 3097 
Q 1578 3097 1268 2742 
Q 959 2388 959 1747 
Q 959 1106 1268 751 
Q 1578 397 2138 397 
Q 2388 397 2633 464 
Q 2878 531 3122 666 
L 3122 134 
Q 2881 22 2623 -34 
Q 2366 -91 2075 -91 
Q 1284 -91 818 406 
Q 353 903 353 1747 
Q 353 2603 823 3093 
Q 1294 3584 2113 3584 
Q 2378 3584 2631 3529 
Q 2884 3475 3122 3366 
z
" transform="scale(0.015625)"/>
       <path id="DejaVuSans-20" transform="scale(0.015625)"/>
       <path id="DejaVuSans-43" d="M 4122 4306 
L 4122 3641 
Q 3803 3938 3442 4084 
Q 3081 4231 2675 4231 
Q 1875 4231 1450 3742 
Q 1025 3253 1025 2328 
Q 1025 1406 1450 917 
Q 1875 428 2675 428 
Q 3081 428 3442 575 
Q 3803 722 4122 1019 
L 4122 359 
Q 3791 134 3420 21 
Q 3050 -91 2638 -91 
Q 1578 -91 968 557 
Q 359 1206 359 2328 
Q 359 3453 968 4101 
Q 1578 4750 2638 4750 
Q 3056 4750 3426 4639 
Q 3797 4528 4122 4306 
z
" transform="scale(0.015625)"/>
       <path id="DejaVuSans-68" d="M 3513 2113 
L 3513 0 
L 2938 0 
L 2938 2094 
Q 2938 2591 2744 2837 
Q 2550 3084 2163 3084 
Q 1697 3084 1428 2787 
Q 1159 2491 1159 1978 
L 1159 0 
L 581 0 
L 581 4863 
L 1159 4863 
L 1159 2956 
Q 1366 3272 1645 3428 
Q 1925 3584 2291 3584 
Q 2894 3584 3203 3211 
Q 3513 2838 3513 2113 
z
" transform="scale(0.015625)"/>
       <path id="DejaVuSans-69" d="M 603 3500 
L 1178 3500 
L 1178 0 
L 603 0 
L 603 3500 
z
M 603 4863 
L 1178 4863 
L 1178 4134 
L 603 4134 
L 603 4863 
z
" transform="scale(0.015625)"/>
       <path id="DejaVuSans-32" d="M 1228 531 
L 3431 531 
L 3431 0 
L 469 0 
L 469 531 
Q 828 903 1448 1529 
Q 2069 2156 2228 2338 
Q 2531 2678 2651 2914 
Q 2772 3150 2772 3378 
Q 2772 3750 2511 3984 
Q 2250 4219 1831 4219 
Q 1534 4219 1204 4116 
Q 875 4013 500 3803 
L 500 4441 
Q 881 4594 1212 4672 
Q 1544 4750 1819 4750 
Q 2544 4750 2975 4387 
Q 3406 4025 3406 3419 
Q 3406 3131 3298 2873 
Q 3191 2616 2906 2266 
Q 2828 2175 2409 1742 
Q 1991 1309 1228 531 
z
" transform="scale(0.015625)"/>
      </defs>
      <use xlink:href="#DejaVuSans-52"/>
      <use xlink:href="#DejaVuSans-65" x="64.982422"/>
      <use xlink:href="#DejaVuSans-64" x="126.505859"/>
      <use xlink:href="#DejaVuSans-75" x="189.982422"/>
      <use xlink:href="#DejaVuSans-63" x="253.361328"/>
      <use xlink:href="#DejaVuSans-65" x="308.341797"/>
      <use xlink:href="#DejaVuSans-64" x="369.865234"/>
      <use xlink:href="#DejaVuSans-20" x="433.341797"/>
      <use xlink:href="#DejaVuSans-43" x="465.128906"/>
      <use xlink:href="#DejaVuSans-68" x="534.953125"/>
      <use xlink:href="#DejaVuSans-69" x="598.332031"/>
      <use xlink:href="#DejaVuSans-32" x="626.115234"/>
     </g>
    </g>
   </g>
   <g id="patch_3">
    <path d="M 54 384.48 
L 54 51.84 
" style="fill: none; stroke: #000000; stroke-width: 0.8; stroke-linejoin: miter; stroke-linecap: square"/>
   </g>
   <g id="patch_4">
    <path d="M 388.8 384.48 
L 388.8 51.84 
" style="fill: none; stroke: #000000; stroke-width: 0.8; stroke-linejoin: miter; stroke-linecap: square"/>
   </g>
   <g id="patch_5">
    <path d="M 54 384.48 
L 388.8 384.48 
" style="fill: none; stroke: #000000; stroke-width: 0.8; stroke-linejoin: miter; stroke-linecap: square"/>
   </g>
   <g id="patch_6">
    <path d="M 54 51.84 
L 388.8 51.84 
" style="fill: none; stroke: #000000; stroke-width: 0.8; stroke-linejoin: miter; stroke-linecap: square"/>
   </g>
   <g id="legend_1">
    <g id="patch_7">
     <path d="M 390.8 384.48 
L 495.965625 384.48 
Q 497.965625 384.48 497.965625 382.48 
L 497.965625 -27.5075 
Q 497.965625 -29.5075 495.965625 -29.5075 
L 390.8 -29.5075 
Q 388.8 -29.5075 388.8 -27.5075 
L 388.8 382.48 
Q 388.8 384.48 390.8 384.48 
z
" style="fill: #ffffff; opacity: 0.8; stroke: #cccccc; stroke-linejoin: miter"/>
    </g>
    <g id="PathCollection_30">
     <g/>
    </g>
    <g id="text_16">
     <!-- 1000000.0 -->
     <g transform="translate(420.8 -17.909063)scale(0.1 -0.1)">
      <use xlink:href="#DejaVuSans-31"/>
      <use xlink:href="#DejaVuSans-30" x="63.623047"/>
      <use xlink:href="#DejaVuSans-30" x="127.246094"/>
      <use xlink:href="#DejaVuSans-30" x="190.869141"/>
      <use xlink:href="#DejaVuSans-30" x="254.492188"/>
      <use xlink:href="#DejaVuSans-30" x="318.115234"/>
      <use xlink:href="#DejaVuSans-30" x="381.738281"/>
      <use xlink:href="#DejaVuSans-2e" x="445.361328"/>
      <use xlink:href="#DejaVuSans-30" x="477.148438"/>
     </g>
    </g>
    <g id="PathCollection_31">
     <g/>
    </g>
    <g id="text_17">
     <!-- 100000.0 -->
     <g transform="translate(420.8 -3.230938)scale(0.1 -0.1)">
      <use xlink:href="#DejaVuSans-31"/>
      <use xlink:href="#DejaVuSans-30" x="63.623047"/>
      <use xlink:href="#DejaVuSans-30" x="127.246094"/>
      <use xlink:href="#DejaVuSans-30" x="190.869141"/>
      <use xlink:href="#DejaVuSans-30" x="254.492188"/>
      <use xlink:href="#DejaVuSans-30" x="318.115234"/>
      <use xlink:href="#DejaVuSans-2e" x="381.738281"/>
      <use xlink:href="#DejaVuSans-30" x="413.525391"/>
     </g>
    </g>
    <g id="PathCollection_32">
     <g>
      <use xlink:href="#md49a210515" x="402.8" y="8.822187" style="fill: #4a53fb; stroke: #4a53fb"/>
     </g>
    </g>
    <g id="text_18">
     <!-- 55000.0 -->
     <g transform="translate(420.8 11.447187)scale(0.1 -0.1)">
      <use xlink:href="#DejaVuSans-35"/>
      <use xlink:href="#DejaVuSans-35" x="63.623047"/>
      <use xlink:href="#DejaVuSans-30" x="127.246094"/>
      <use xlink:href="#DejaVuSans-30" x="190.869141"/>
      <use xlink:href="#DejaVuSans-30" x="254.492188"/>
      <use xlink:href="#DejaVuSans-2e" x="318.115234"/>
      <use xlink:href="#DejaVuSans-30" x="349.902344"/>
     </g>
    </g>
    <g id="PathCollection_33">
     <g>
      <use xlink:href="#mf7f1e7b4cf" x="402.8" y="23.500312" style="fill: #386df9; stroke: #386df9"/>
     </g>
    </g>
    <g id="text_19">
     <!-- 10000.0 -->
     <g transform="translate(420.8 26.125312)scale(0.1 -0.1)">
      <use xlink:href="#DejaVuSans-31"/>
      <use xlink:href="#DejaVuSans-30" x="63.623047"/>
      <use xlink:href="#DejaVuSans-30" x="127.246094"/>
      <use xlink:href="#DejaVuSans-30" x="190.869141"/>
      <use xlink:href="#DejaVuSans-30" x="254.492188"/>
      <use xlink:href="#DejaVuSans-2e" x="318.115234"/>
      <use xlink:href="#DejaVuSans-30" x="349.902344"/>
     </g>
    </g>
    <g id="PathCollection_34">
     <g>
      <use xlink:href="#m5f046e8260" x="402.8" y="38.178437" style="fill: #2686f5; stroke: #2686f5"/>
     </g>
    </g>
    <g id="text_20">
     <!-- 7750.0 -->
     <g transform="translate(420.8 40.803437)scale(0.1 -0.1)">
      <use xlink:href="#DejaVuSans-37"/>
      <use xlink:href="#DejaVuSans-37" x="63.623047"/>
      <use xlink:href="#DejaVuSans-35" x="127.246094"/>
      <use xlink:href="#DejaVuSans-30" x="190.869141"/>
      <use xlink:href="#DejaVuSans-2e" x="254.492188"/>
      <use xlink:href="#DejaVuSans-30" x="286.279297"/>
     </g>
    </g>
    <g id="PathCollection_35">
     <g>
      <use xlink:href="#m5f828948d9" x="402.8" y="52.856562" style="fill: #149df1; stroke: #149df1"/>
     </g>
    </g>
    <g id="text_21">
     <!-- 6625.0 -->
     <g transform="translate(420.8 55.481562)scale(0.1 -0.1)">
      <use xlink:href="#DejaVuSans-36"/>
      <use xlink:href="#DejaVuSans-36" x="63.623047"/>
      <use xlink:href="#DejaVuSans-32" x="127.246094"/>
      <use xlink:href="#DejaVuSans-35" x="190.869141"/>
      <use xlink:href="#DejaVuSans-2e" x="254.492188"/>
      <use xlink:href="#DejaVuSans-30" x="286.279297"/>
     </g>
    </g>
    <g id="PathCollection_36">
     <g>
      <use xlink:href="#m3ce7f2e40c" x="402.8" y="67.534687" style="fill: #00b5eb; stroke: #00b5eb"/>
     </g>
    </g>
    <g id="text_22">
     <!-- 5500.0 -->
     <g transform="translate(420.8 70.159687)scale(0.1 -0.1)">
      <use xlink:href="#DejaVuSans-35"/>
      <use xlink:href="#DejaVuSans-35" x="63.623047"/>
      <use xlink:href="#DejaVuSans-30" x="127.246094"/>
      <use xlink:href="#DejaVuSans-30" x="190.869141"/>
      <use xlink:href="#DejaVuSans-2e" x="254.492188"/>
      <use xlink:href="#DejaVuSans-30" x="286.279297"/>
     </g>
    </g>
    <g id="PathCollection_37">
     <g>
      <use xlink:href="#meb320fa242" x="402.8" y="82.212812" style="fill: #12c8e6; stroke: #12c8e6"/>
     </g>
    </g>
    <g id="text_23">
     <!-- 4937.5 -->
     <g transform="translate(420.8 84.837812)scale(0.1 -0.1)">
      <defs>
       <path id="DejaVuSans-34" d="M 2419 4116 
L 825 1625 
L 2419 1625 
L 2419 4116 
z
M 2253 4666 
L 3047 4666 
L 3047 1625 
L 3713 1625 
L 3713 1100 
L 3047 1100 
L 3047 0 
L 2419 0 
L 2419 1100 
L 313 1100 
L 313 1709 
L 2253 4666 
z
" transform="scale(0.015625)"/>
       <path id="DejaVuSans-33" d="M 2597 2516 
Q 3050 2419 3304 2112 
Q 3559 1806 3559 1356 
Q 3559 666 3084 287 
Q 2609 -91 1734 -91 
Q 1441 -91 1130 -33 
Q 819 25 488 141 
L 488 750 
Q 750 597 1062 519 
Q 1375 441 1716 441 
Q 2309 441 2620 675 
Q 2931 909 2931 1356 
Q 2931 1769 2642 2001 
Q 2353 2234 1838 2234 
L 1294 2234 
L 1294 2753 
L 1863 2753 
Q 2328 2753 2575 2939 
Q 2822 3125 2822 3475 
Q 2822 3834 2567 4026 
Q 2313 4219 1838 4219 
Q 1578 4219 1281 4162 
Q 984 4106 628 3988 
L 628 4550 
Q 988 4650 1302 4700 
Q 1616 4750 1894 4750 
Q 2613 4750 3031 4423 
Q 3450 4097 3450 3541 
Q 3450 3153 3228 2886 
Q 3006 2619 2597 2516 
z
" transform="scale(0.015625)"/>
      </defs>
      <use xlink:href="#DejaVuSans-34"/>
      <use xlink:href="#DejaVuSans-39" x="63.623047"/>
      <use xlink:href="#DejaVuSans-33" x="127.246094"/>
      <use xlink:href="#DejaVuSans-37" x="190.869141"/>
      <use xlink:href="#DejaVuSans-2e" x="254.492188"/>
      <use xlink:href="#DejaVuSans-35" x="286.279297"/>
     </g>
    </g>
    <g id="PathCollection_38">
     <g>
      <use xlink:href="#m5cc6aee720" x="402.8" y="96.890937" style="fill: #24d8df; stroke: #24d8df"/>
     </g>
    </g>
    <g id="text_24">
     <!-- 4656.25 -->
     <g transform="translate(420.8 99.515937)scale(0.1 -0.1)">
      <use xlink:href="#DejaVuSans-34"/>
      <use xlink:href="#DejaVuSans-36" x="63.623047"/>
      <use xlink:href="#DejaVuSans-35" x="127.246094"/>
      <use xlink:href="#DejaVuSans-36" x="190.869141"/>
      <use xlink:href="#DejaVuSans-2e" x="254.492188"/>
      <use xlink:href="#DejaVuSans-32" x="286.279297"/>
      <use xlink:href="#DejaVuSans-35" x="349.902344"/>
     </g>
    </g>
    <g id="PathCollection_39">
     <g>
      <use xlink:href="#m140832e0ed" x="402.8" y="111.569062" style="fill: #37e6d8; stroke: #37e6d8"/>
     </g>
    </g>
    <g id="text_25">
     <!-- 4585.9375 -->
     <g transform="translate(420.8 114.194062)scale(0.1 -0.1)">
      <use xlink:href="#DejaVuSans-34"/>
      <use xlink:href="#DejaVuSans-35" x="63.623047"/>
      <use xlink:href="#DejaVuSans-38" x="127.246094"/>
      <use xlink:href="#DejaVuSans-35" x="190.869141"/>
      <use xlink:href="#DejaVuSans-2e" x="254.492188"/>
      <use xlink:href="#DejaVuSans-39" x="286.279297"/>
      <use xlink:href="#DejaVuSans-33" x="349.902344"/>
      <use xlink:href="#DejaVuSans-37" x="413.525391"/>
      <use xlink:href="#DejaVuSans-35" x="477.148438"/>
     </g>
    </g>
    <g id="PathCollection_40">
     <g>
      <use xlink:href="#m6c6c4357fc" x="402.8" y="126.247187" style="fill: #48f1d0; stroke: #48f1d0"/>
     </g>
    </g>
    <g id="text_26">
     <!-- 4515.625 -->
     <g transform="translate(420.8 128.872187)scale(0.1 -0.1)">
      <use xlink:href="#DejaVuSans-34"/>
      <use xlink:href="#DejaVuSans-35" x="63.623047"/>
      <use xlink:href="#DejaVuSans-31" x="127.246094"/>
      <use xlink:href="#DejaVuSans-35" x="190.869141"/>
      <use xlink:href="#DejaVuSans-2e" x="254.492188"/>
      <use xlink:href="#DejaVuSans-36" x="286.279297"/>
      <use xlink:href="#DejaVuSans-32" x="349.902344"/>
      <use xlink:href="#DejaVuSans-35" x="413.525391"/>
     </g>
    </g>
    <g id="PathCollection_41">
     <g>
      <use xlink:href="#ma6f9d09eb4" x="402.8" y="140.925312" style="fill: #5af8c8; stroke: #5af8c8"/>
     </g>
    </g>
    <g id="text_27">
     <!-- 4498.046875 -->
     <g transform="translate(420.8 143.550312)scale(0.1 -0.1)">
      <use xlink:href="#DejaVuSans-34"/>
      <use xlink:href="#DejaVuSans-34" x="63.623047"/>
      <use xlink:href="#DejaVuSans-39" x="127.246094"/>
      <use xlink:href="#DejaVuSans-38" x="190.869141"/>
      <use xlink:href="#DejaVuSans-2e" x="254.492188"/>
      <use xlink:href="#DejaVuSans-30" x="286.279297"/>
      <use xlink:href="#DejaVuSans-34" x="349.902344"/>
      <use xlink:href="#DejaVuSans-36" x="413.525391"/>
      <use xlink:href="#DejaVuSans-38" x="477.148438"/>
      <use xlink:href="#DejaVuSans-37" x="540.771484"/>
      <use xlink:href="#DejaVuSans-35" x="604.394531"/>
     </g>
    </g>
    <g id="PathCollection_42">
     <g>
      <use xlink:href="#ma88b803e93" x="402.8" y="155.603437" style="fill: #6dfdbf; stroke: #6dfdbf"/>
     </g>
    </g>
    <g id="text_28">
     <!-- 4489.2578125 -->
     <g transform="translate(420.8 158.228437)scale(0.1 -0.1)">
      <use xlink:href="#DejaVuSans-34"/>
      <use xlink:href="#DejaVuSans-34" x="63.623047"/>
      <use xlink:href="#DejaVuSans-38" x="127.246094"/>
      <use xlink:href="#DejaVuSans-39" x="190.869141"/>
      <use xlink:href="#DejaVuSans-2e" x="254.492188"/>
      <use xlink:href="#DejaVuSans-32" x="286.279297"/>
      <use xlink:href="#DejaVuSans-35" x="349.902344"/>
      <use xlink:href="#DejaVuSans-37" x="413.525391"/>
      <use xlink:href="#DejaVuSans-38" x="477.148438"/>
      <use xlink:href="#DejaVuSans-31" x="540.771484"/>
      <use xlink:href="#DejaVuSans-32" x="604.394531"/>
      <use xlink:href="#DejaVuSans-35" x="668.017578"/>
     </g>
    </g>
    <g id="PathCollection_43">
     <g>
      <use xlink:href="#m1cdbeeb4a4" x="402.8" y="170.281562" style="fill: #80ffb4; stroke: #80ffb4"/>
     </g>
    </g>
    <g id="text_29">
     <!-- 4480.46875 -->
     <g transform="translate(420.8 172.906562)scale(0.1 -0.1)">
      <use xlink:href="#DejaVuSans-34"/>
      <use xlink:href="#DejaVuSans-34" x="63.623047"/>
      <use xlink:href="#DejaVuSans-38" x="127.246094"/>
      <use xlink:href="#DejaVuSans-30" x="190.869141"/>
      <use xlink:href="#DejaVuSans-2e" x="254.492188"/>
      <use xlink:href="#DejaVuSans-34" x="286.279297"/>
      <use xlink:href="#DejaVuSans-36" x="349.902344"/>
      <use xlink:href="#DejaVuSans-38" x="413.525391"/>
      <use xlink:href="#DejaVuSans-37" x="477.148438"/>
      <use xlink:href="#DejaVuSans-35" x="540.771484"/>
     </g>
    </g>
    <g id="PathCollection_44">
     <g>
      <use xlink:href="#m1d203b181f" x="402.8" y="184.959687" style="fill: #92fda9; stroke: #92fda9"/>
     </g>
    </g>
    <g id="text_30">
     <!-- 4471.6796875 -->
     <g transform="translate(420.8 187.584687)scale(0.1 -0.1)">
      <use xlink:href="#DejaVuSans-34"/>
      <use xlink:href="#DejaVuSans-34" x="63.623047"/>
      <use xlink:href="#DejaVuSans-37" x="127.246094"/>
      <use xlink:href="#DejaVuSans-31" x="190.869141"/>
      <use xlink:href="#DejaVuSans-2e" x="254.492188"/>
      <use xlink:href="#DejaVuSans-36" x="286.279297"/>
      <use xlink:href="#DejaVuSans-37" x="349.902344"/>
      <use xlink:href="#DejaVuSans-39" x="413.525391"/>
      <use xlink:href="#DejaVuSans-36" x="477.148438"/>
      <use xlink:href="#DejaVuSans-38" x="540.771484"/>
      <use xlink:href="#DejaVuSans-37" x="604.394531"/>
      <use xlink:href="#DejaVuSans-35" x="668.017578"/>
     </g>
    </g>
    <g id="PathCollection_45">
     <g>
      <use xlink:href="#mf21aa641c8" x="402.8" y="199.637812" style="fill: #a4f89f; stroke: #a4f89f"/>
     </g>
    </g>
    <g id="text_31">
     <!-- 4462.890625 -->
     <g transform="translate(420.8 202.262812)scale(0.1 -0.1)">
      <use xlink:href="#DejaVuSans-34"/>
      <use xlink:href="#DejaVuSans-34" x="63.623047"/>
      <use xlink:href="#DejaVuSans-36" x="127.246094"/>
      <use xlink:href="#DejaVuSans-32" x="190.869141"/>
      <use xlink:href="#DejaVuSans-2e" x="254.492188"/>
      <use xlink:href="#DejaVuSans-38" x="286.279297"/>
      <use xlink:href="#DejaVuSans-39" x="349.902344"/>
      <use xlink:href="#DejaVuSans-30" x="413.525391"/>
      <use xlink:href="#DejaVuSans-36" x="477.148438"/>
      <use xlink:href="#DejaVuSans-32" x="540.771484"/>
      <use xlink:href="#DejaVuSans-35" x="604.394531"/>
     </g>
    </g>
    <g id="PathCollection_46">
     <g>
      <use xlink:href="#m6ba8abdd70" x="402.8" y="214.315937" style="fill: #b6f193; stroke: #b6f193"/>
     </g>
    </g>
    <g id="text_32">
     <!-- 4445.3125 -->
     <g transform="translate(420.8 216.940937)scale(0.1 -0.1)">
      <use xlink:href="#DejaVuSans-34"/>
      <use xlink:href="#DejaVuSans-34" x="63.623047"/>
      <use xlink:href="#DejaVuSans-34" x="127.246094"/>
      <use xlink:href="#DejaVuSans-35" x="190.869141"/>
      <use xlink:href="#DejaVuSans-2e" x="254.492188"/>
      <use xlink:href="#DejaVuSans-33" x="286.279297"/>
      <use xlink:href="#DejaVuSans-31" x="349.902344"/>
      <use xlink:href="#DejaVuSans-32" x="413.525391"/>
      <use xlink:href="#DejaVuSans-35" x="477.148438"/>
     </g>
    </g>
    <g id="PathCollection_47">
     <g>
      <use xlink:href="#m24a61324e9" x="402.8" y="228.994062" style="fill: #c8e688; stroke: #c8e688"/>
     </g>
    </g>
    <g id="text_33">
     <!-- 4410.15625 -->
     <g transform="translate(420.8 231.619062)scale(0.1 -0.1)">
      <use xlink:href="#DejaVuSans-34"/>
      <use xlink:href="#DejaVuSans-34" x="63.623047"/>
      <use xlink:href="#DejaVuSans-31" x="127.246094"/>
      <use xlink:href="#DejaVuSans-30" x="190.869141"/>
      <use xlink:href="#DejaVuSans-2e" x="254.492188"/>
      <use xlink:href="#DejaVuSans-31" x="286.279297"/>
      <use xlink:href="#DejaVuSans-35" x="349.902344"/>
      <use xlink:href="#DejaVuSans-36" x="413.525391"/>
      <use xlink:href="#DejaVuSans-32" x="477.148438"/>
      <use xlink:href="#DejaVuSans-35" x="540.771484"/>
     </g>
    </g>
    <g id="PathCollection_48">
     <g>
      <use xlink:href="#m5e96dd5cc4" x="402.8" y="243.672187" style="fill: #dbd87b; stroke: #dbd87b"/>
     </g>
    </g>
    <g id="text_34">
     <!-- 4375.0 -->
     <g transform="translate(420.8 246.297187)scale(0.1 -0.1)">
      <use xlink:href="#DejaVuSans-34"/>
      <use xlink:href="#DejaVuSans-33" x="63.623047"/>
      <use xlink:href="#DejaVuSans-37" x="127.246094"/>
      <use xlink:href="#DejaVuSans-35" x="190.869141"/>
      <use xlink:href="#DejaVuSans-2e" x="254.492188"/>
      <use xlink:href="#DejaVuSans-30" x="286.279297"/>
     </g>
    </g>
    <g id="PathCollection_49">
     <g>
      <use xlink:href="#m64de899233" x="402.8" y="258.350312" style="fill: #ecc86f; stroke: #ecc86f"/>
     </g>
    </g>
    <g id="text_35">
     <!-- 4234.375 -->
     <g transform="translate(420.8 260.975312)scale(0.1 -0.1)">
      <use xlink:href="#DejaVuSans-34"/>
      <use xlink:href="#DejaVuSans-32" x="63.623047"/>
      <use xlink:href="#DejaVuSans-33" x="127.246094"/>
      <use xlink:href="#DejaVuSans-34" x="190.869141"/>
      <use xlink:href="#DejaVuSans-2e" x="254.492188"/>
      <use xlink:href="#DejaVuSans-33" x="286.279297"/>
      <use xlink:href="#DejaVuSans-37" x="349.902344"/>
      <use xlink:href="#DejaVuSans-35" x="413.525391"/>
     </g>
    </g>
    <g id="PathCollection_50">
     <g>
      <use xlink:href="#m3b8aa62928" x="402.8" y="273.028437" style="fill: #ffb360; stroke: #ffb360"/>
     </g>
    </g>
    <g id="text_36">
     <!-- 4093.75 -->
     <g transform="translate(420.8 275.653437)scale(0.1 -0.1)">
      <use xlink:href="#DejaVuSans-34"/>
      <use xlink:href="#DejaVuSans-30" x="63.623047"/>
      <use xlink:href="#DejaVuSans-39" x="127.246094"/>
      <use xlink:href="#DejaVuSans-33" x="190.869141"/>
      <use xlink:href="#DejaVuSans-2e" x="254.492188"/>
      <use xlink:href="#DejaVuSans-37" x="286.279297"/>
      <use xlink:href="#DejaVuSans-35" x="349.902344"/>
     </g>
    </g>
    <g id="PathCollection_51">
     <g>
      <use xlink:href="#mf87cce53d3" x="402.8" y="287.706562" style="fill: #ff9d53; stroke: #ff9d53"/>
     </g>
    </g>
    <g id="text_37">
     <!-- 3812.5 -->
     <g transform="translate(420.8 290.331562)scale(0.1 -0.1)">
      <use xlink:href="#DejaVuSans-33"/>
      <use xlink:href="#DejaVuSans-38" x="63.623047"/>
      <use xlink:href="#DejaVuSans-31" x="127.246094"/>
      <use xlink:href="#DejaVuSans-32" x="190.869141"/>
      <use xlink:href="#DejaVuSans-2e" x="254.492188"/>
      <use xlink:href="#DejaVuSans-35" x="286.279297"/>
     </g>
    </g>
    <g id="PathCollection_52">
     <g>
      <use xlink:href="#m3323741a99" x="402.8" y="302.384687" style="fill: #ff8646; stroke: #ff8646"/>
     </g>
    </g>
    <g id="text_38">
     <!-- 3250.0 -->
     <g transform="translate(420.8 305.009687)scale(0.1 -0.1)">
      <use xlink:href="#DejaVuSans-33"/>
      <use xlink:href="#DejaVuSans-32" x="63.623047"/>
      <use xlink:href="#DejaVuSans-35" x="127.246094"/>
      <use xlink:href="#DejaVuSans-30" x="190.869141"/>
      <use xlink:href="#DejaVuSans-2e" x="254.492188"/>
      <use xlink:href="#DejaVuSans-30" x="286.279297"/>
     </g>
    </g>
    <g id="PathCollection_53">
     <g>
      <use xlink:href="#m64b03df305" x="402.8" y="317.062812" style="fill: #ff6d38; stroke: #ff6d38"/>
     </g>
    </g>
    <g id="text_39">
     <!-- 1000.0 -->
     <g transform="translate(420.8 319.687812)scale(0.1 -0.1)">
      <use xlink:href="#DejaVuSans-31"/>
      <use xlink:href="#DejaVuSans-30" x="63.623047"/>
      <use xlink:href="#DejaVuSans-30" x="127.246094"/>
      <use xlink:href="#DejaVuSans-30" x="190.869141"/>
      <use xlink:href="#DejaVuSans-2e" x="254.492188"/>
      <use xlink:href="#DejaVuSans-30" x="286.279297"/>
     </g>
    </g>
    <g id="PathCollection_54">
     <g>
      <use xlink:href="#m22f8f9908b" x="402.8" y="331.740937" style="fill: #ff532a; stroke: #ff532a"/>
     </g>
    </g>
    <g id="text_40">
     <!-- 100.0 -->
     <g transform="translate(420.8 334.365937)scale(0.1 -0.1)">
      <use xlink:href="#DejaVuSans-31"/>
      <use xlink:href="#DejaVuSans-30" x="63.623047"/>
      <use xlink:href="#DejaVuSans-30" x="127.246094"/>
      <use xlink:href="#DejaVuSans-2e" x="190.869141"/>
      <use xlink:href="#DejaVuSans-30" x="222.65625"/>
     </g>
    </g>
    <g id="PathCollection_55">
     <g>
      <use xlink:href="#m63109c411b" x="402.8" y="346.419062" style="fill: #ff381c; stroke: #ff381c"/>
     </g>
    </g>
    <g id="text_41">
     <!-- 10.0 -->
     <g transform="translate(420.8 349.044062)scale(0.1 -0.1)">
      <use xlink:href="#DejaVuSans-31"/>
      <use xlink:href="#DejaVuSans-30" x="63.623047"/>
      <use xlink:href="#DejaVuSans-2e" x="127.246094"/>
      <use xlink:href="#DejaVuSans-30" x="159.033203"/>
     </g>
    </g>
    <g id="PathCollection_56">
     <g>
      <use xlink:href="#m8c51a9662a" x="402.8" y="361.097187" style="fill: #ff1c0e; stroke: #ff1c0e"/>
     </g>
    </g>
    <g id="text_42">
     <!-- 1.0 -->
     <g transform="translate(420.8 363.722187)scale(0.1 -0.1)">
      <use xlink:href="#DejaVuSans-31"/>
      <use xlink:href="#DejaVuSans-2e" x="63.623047"/>
      <use xlink:href="#DejaVuSans-30" x="95.410156"/>
     </g>
    </g>
    <g id="PathCollection_57">
     <g>
      <use xlink:href="#mca3723faaa" x="402.8" y="375.775312" style="fill: #ff0000; stroke: #ff0000"/>
     </g>
    </g>
    <g id="text_43">
     <!-- 0.0 -->
     <g transform="translate(420.8 378.400312)scale(0.1 -0.1)">
      <use xlink:href="#DejaVuSans-30"/>
      <use xlink:href="#DejaVuSans-2e" x="63.623047"/>
      <use xlink:href="#DejaVuSans-30" x="95.410156"/>
     </g>
    </g>
   </g>
  </g>
 </g>
 <defs>
  <clipPath id="p892686bd27">
   <rect x="54" y="51.84" width="334.8" height="332.64"/>
  </clipPath>
 </defs>
</svg>
